<svg xmlns="http://www.w3.org/2000/svg" xmlns:xlink="http://www.w3.org/1999/xlink" width="300" height="195" viewBox="0 0 300 195"><defs><style>.a{fill:url(#a);}.b,.e{fill:#414141;}.b{font-size:16px;font-family:Poppins-Medium, Poppins;font-weight:500;}.c{fill:none;}.d{fill:#a4d4ff;}.f{fill:#377ab5;}.g{fill:#fff;}</style><linearGradient id="a" x1="0.5" x2="0.5" y2="1" gradientUnits="objectBoundingBox"><stop offset="0" stop-color="#fdc501"/><stop offset="1" stop-color="#fff"/></linearGradient></defs><g transform="translate(-520 -353.254)"><path class="a" d="M458-329.945l151.151-168.28L758-329.945Z" transform="translate(62 851.478)"/><g transform="translate(569.916 377.478)">
<g transform="translate(62.476 11.029)"><rect class="c" width="75" height="75"/><circle class="d" cx="21.802" cy="21.802" r="21.802" transform="translate(0.872 24.419)"/><g transform="translate(3.608 3.746)"><g transform="translate(1 1)"><path class="e" d="M56.548,13A1.52,1.52,0,0,0,55,14.548V65.1a1.548,1.548,0,1,0,3.1,0V14.548A1.52,1.52,0,0,0,56.548,13Z" transform="translate(-27.143 -6.81)"/><path class="e" d="M31.006,113.037a1.128,1.128,0,0,0,.155.258.906.906,0,0,0,.206.258,1.485,1.485,0,0,0,1.083.464,1.4,1.4,0,0,0,1.083-.464A1.485,1.485,0,0,0,34,112.47a.654.654,0,0,0-.052-.31.733.733,0,0,0-.1-.31c-.052-.1-.1-.155-.155-.258a.906.906,0,0,0-.206-.258l-.206-.206c-.1-.052-.155-.1-.258-.155s-.206-.052-.31-.1a1.53,1.53,0,0,0-1.393.413,1.125,1.125,0,0,0-.206.258c-.052.1-.1.155-.155.258s-.052.206-.1.31c0,.1-.052.206-.052.31a.654.654,0,0,0,.052.31C30.955,112.882,30.955,112.986,31.006,113.037Z" transform="translate(-15.427 -54.176)"/><circle class="e" cx="1.548" cy="1.548" r="1.548" transform="translate(15.476 33.016)"/><circle class="e" cx="1.548" cy="1.548" r="1.548" transform="translate(15.476 27.083)"/><circle class="e" cx="1.548" cy="1.548" r="1.548" transform="translate(15.476 50.813)"/><circle class="e" cx="1.548" cy="1.548" r="1.548" transform="translate(15.476 44.881)"/><circle class="e" cx="1.548" cy="1.548" r="1.548" transform="translate(15.476 38.948)"/><path class="e" d="M32.5,45.059a1.4,1.4,0,0,0,1.083-.464,1.485,1.485,0,0,0,.464-1.083,1.4,1.4,0,0,0-.464-1.083l-.206-.206c-.1-.052-.155-.1-.258-.155s-.206-.052-.31-.1a1.257,1.257,0,0,0-.619,0,.733.733,0,0,0-.31.1c-.1.052-.155.1-.258.155a.4.4,0,0,0-.206.206c-.052.1-.155.155-.206.258s-.1.155-.155.258-.052.206-.1.31c0,.1-.052.206-.052.31a1.4,1.4,0,0,0,.464,1.083A1.8,1.8,0,0,0,32.5,45.059Z" transform="translate(-15.475 -20.813)"/><path class="e" d="M68.548,13A1.52,1.52,0,0,0,67,14.548V65.1a1.548,1.548,0,1,0,3.1,0V14.548A1.52,1.52,0,0,0,68.548,13Z" transform="translate(-32.952 -6.81)"/><circle class="e" cx="1.548" cy="1.548" r="1.548" transform="translate(45.913 50.556)"/><path class="e" d="M91.548,111A1.52,1.52,0,0,0,90,112.548a1.548,1.548,0,1,0,3.1,0A1.52,1.52,0,0,0,91.548,111Z" transform="translate(-44.087 -54.254)"/><circle class="e" cx="1.548" cy="1.548" r="1.548" transform="translate(45.913 44.365)"/><circle class="e" cx="1.548" cy="1.548" r="1.548" transform="translate(45.913 31.984)"/><circle class="e" cx="1.548" cy="1.548" r="1.548" transform="translate(45.913 25.794)"/><circle class="e" cx="1.548" cy="1.548" r="1.548" transform="translate(45.913 38.175)"/><path class="e" d="M64.452,62.9H62.389V28.341a1.52,1.52,0,0,0-1.548-1.548H56.2v-8.77a1.52,1.52,0,0,0-1.548-1.548H50.008V11.833a1.52,1.52,0,0,0-1.548-1.548H43.817V2.548A1.52,1.52,0,0,0,42.27,1H24.214a1.52,1.52,0,0,0-1.548,1.548v7.738H18.024a1.52,1.52,0,0,0-1.548,1.548v4.643H11.833a1.52,1.52,0,0,0-1.548,1.548v8.77H5.643A1.52,1.52,0,0,0,4.1,28.341V62.9H2.548a1.548,1.548,0,1,0,0,3.1h61.9a1.548,1.548,0,1,0,0-3.1ZM59.294,29.889V62.9H56.2V29.889ZM53.1,62.9H43.817V19.571H53.1Zm-6.19-49.524v3.1h-3.1v-3.1Zm-27.341,0h3.1v3.1h-3.1Zm-6.19,6.19h9.286V62.9H13.381ZM7.19,29.889h3.1V62.9H7.19ZM25.762,62.9V4.1h14.96V62.9Z" transform="translate(-1 -1)"/></g></g><circle class="f" cx="15.698" cy="15.698" r="15.698" transform="translate(37.5 14.826)"/><path class="g" d="M12.7,20.633H7.936a.794.794,0,0,1-.794-.794V18.448c-.11-.044-.22-.09-.33-.139l-.985.985a.817.817,0,0,1-1.122,0L1.339,15.928a.794.794,0,0,1,0-1.122l.985-.986c-.049-.11-.094-.219-.138-.329H.794A.794.794,0,0,1,0,12.7V7.936a.794.794,0,0,1,.794-.794H2.186c.044-.11.089-.22.138-.329l-.985-.986a.794.794,0,0,1,0-1.122L4.705,1.339a.817.817,0,0,1,1.122,0l.985.985c.11-.048.22-.094.33-.139V.794A.794.794,0,0,1,7.936,0H12.7a.794.794,0,0,1,.794.794V2.185c.11.044.22.09.33.139l.985-.985a.817.817,0,0,1,1.122,0l3.366,3.366a.794.794,0,0,1,0,1.122l-.985.986c.049.11.094.219.138.329H19.84a.794.794,0,0,1,.794.794V12.7a.794.794,0,0,1-.794.794H18.448c-.044.11-.089.22-.138.329l.985.986a.794.794,0,0,1,0,1.122l-3.366,3.366a.817.817,0,0,1-1.122,0l-.985-.985c-.11.048-.22.094-.33.139v1.391A.794.794,0,0,1,12.7,20.633ZM8.729,19.046H11.9V17.888a.794.794,0,0,1,.556-.757,7.105,7.105,0,0,0,1.158-.484.794.794,0,0,1,.928.142l.822.822,2.244-2.244-.822-.822a.794.794,0,0,1-.142-.928,7.2,7.2,0,0,0,.484-1.157.794.794,0,0,1,.757-.556h1.157V8.729H17.888a.794.794,0,0,1-.757-.556,7.2,7.2,0,0,0-.484-1.157.794.794,0,0,1,.142-.928l.822-.822L15.367,3.022l-.822.822a.794.794,0,0,1-.928.142A7.1,7.1,0,0,0,12.459,3.5a.794.794,0,0,1-.556-.757V1.587H8.729V2.745a.794.794,0,0,1-.556.757,7.105,7.105,0,0,0-1.158.484.794.794,0,0,1-.928-.142l-.821-.822L3.022,5.266l.822.822a.794.794,0,0,1,.142.928A7.2,7.2,0,0,0,3.5,8.174a.794.794,0,0,1-.757.556H1.587V11.9H2.745a.794.794,0,0,1,.757.556,7.2,7.2,0,0,0,.484,1.157.794.794,0,0,1-.142.928l-.822.822,2.244,2.244.822-.822a.794.794,0,0,1,.928-.142,7.105,7.105,0,0,0,1.158.484.794.794,0,0,1,.556.757Z" transform="translate(42.896 20.034)"/><path class="g" d="M11.762,16.523a4.761,4.761,0,1,1,4.762-4.761A4.761,4.761,0,0,1,11.762,16.523Zm0-7.936a3.174,3.174,0,1,0,3.174,3.174A3.174,3.174,0,0,0,11.762,8.587Z" transform="translate(41.451 18.589)"/></g></g></g></svg>