<svg xmlns="http://www.w3.org/2000/svg" xmlns:xlink="http://www.w3.org/1999/xlink" width="300" height="195" viewBox="0 0 300 195"><defs><style>.a{fill:url(#a);}.b,.f{fill:#414141;}.b{font-size:16px;font-family:Poppins-Medium, Poppins;font-weight:500;}.c{fill:none;}.d{fill:#fdc501;}.e{fill:#a4d4ff;}</style><linearGradient id="a" x1="0.5" x2="0.5" y2="1" gradientUnits="objectBoundingBox"><stop offset="0" stop-color="#377ab5"/><stop offset="1" stop-color="#fff"/></linearGradient></defs><g transform="translate(-520 -353.254)"><path class="a" d="M458-329.945l151.151-168.28L758-329.945Z" transform="translate(62 851.478)"/><g transform="translate(569.916 377.478)">
<g transform="translate(62.476 11.029)"><rect class="c" width="75" height="75" transform="translate(0.608 -0.254)"/><circle class="d" cx="15.698" cy="15.698" r="15.698" transform="translate(37.5 14.826)"/><circle class="e" cx="21.802" cy="21.802" r="21.802" transform="translate(0.872 24.419)"/><g transform="translate(4.613 4.746)"><path class="f" d="M57.006,53a1,1,0,0,0,1-1V48a1,1,0,0,0-1-1h-4a1,1,0,0,0-1,1v4a1,1,0,0,0,1,1Zm-3-4h2v2h-2Z" transform="translate(2.988 1.643)"/><path class="f" d="M47.006,53a1,1,0,0,0,1-1V48a1,1,0,0,0-1-1h-4a1,1,0,0,0-1,1v4a1,1,0,0,0,1,1Zm-3-4h2v2h-2Z" transform="translate(2.188 1.643)"/><path class="f" d="M37.006,53a1,1,0,0,0,1-1V48a1,1,0,0,0-1-1h-4a1,1,0,0,0-1,1v4a1,1,0,0,0,1,1Zm-3-4h2v2h-2Z" transform="translate(1.655 1.643)"/><path class="f" d="M23.006,13h4a1,1,0,0,1,1,1v2h2V14a3,3,0,0,0-3-3h-4a2,2,0,1,1,0-4h16V5h-16a4,4,0,1,0,0,8Z" transform="translate(1.281)"/><path class="f" d="M62.389,32.076a1,1,0,0,0-1.09.217l-7.293,7.293V33a1,1,0,0,0-1.669-.744l-8.331,7.5V33a1,1,0,0,0-1.669-.744l-8.331,7.5V19a1,1,0,0,0-1-1h-8a1,1,0,0,0-1,1V30h2V20h6V42a1,1,0,0,0,1.669.744l8.331-7.5V42a1,1,0,0,0,1.669.744l8.331-7.5V42a1,1,0,0,0,1.707.707l7.293-7.293V58h-35V55h-2v4a1,1,0,0,0,1,1h37a1,1,0,0,0,1-1V33A1,1,0,0,0,62.389,32.076Z" transform="translate(2.988 2)"/><rect class="f" width="2" height="8" transform="translate(18.847 39.37)"/><rect class="f" width="2" height="6" transform="translate(14.648 41.393)"/><rect class="f" width="2" height="4" transform="translate(10 43.414)"/><path class="f" d="M52.606,8h.8a.6.6,0,0,1,.6.6h2a2.6,2.6,0,0,0-2-2.523V5h-2V6.077a2.6,2.6,0,0,0-2,2.523v.8a2.6,2.6,0,0,0,2.6,2.6h.8a.6.6,0,0,1,.6.6v.8a.6.6,0,0,1-.6.6h-.8a.6.6,0,0,1-.6-.6h-2a2.6,2.6,0,0,0,2,2.523V17h2V15.923a2.6,2.6,0,0,0,2-2.523v-.8a2.6,2.6,0,0,0-2.6-2.6h-.8a.6.6,0,0,1-.6-.6V8.6A.6.6,0,0,1,52.606,8Z" transform="translate(2.988)"/><path class="f" d="M53.006,1a10,10,0,1,0,10,10A10.011,10.011,0,0,0,53.006,1Zm0,18a8,8,0,1,1,8-8A8.009,8.009,0,0,1,53.006,19Z" transform="translate(2.988)"/><path class="f" d="M10.777,51.186A10,10,0,1,0,5.94,37.9,9.962,9.962,0,0,0,10.777,51.186ZM7.752,38.741a8,8,0,1,1,3.87,10.632A7.946,7.946,0,0,1,7.752,38.741Z" transform="translate(0 1.482)"/><path class="f" d="M4.948,51.855,3.71,54.51a1,1,0,0,0,.483,1.329l.907.423L3.409,59.887a1,1,0,0,0-.033.765.989.989,0,0,0,.517.564l3.625,1.69a1,1,0,0,0,1.329-.484l1.69-3.625.906.423a1,1,0,0,0,1.329-.483l1.241-2.66c.327.023.654.054.982.054A14.053,14.053,0,1,0,4.948,51.855Zm2.509,8.816-1.812-.845,1.268-2.719,1.812.845Zm3.926-3.687L5.945,54.448l.562-1.206a13.938,13.938,0,0,0,5.434,2.542ZM4.127,37.051h0a12,12,0,1,1-.4,9.176A11.918,11.918,0,0,1,4.127,37.051Z" transform="translate(0 2)"/></g></g></g></g></svg>