<svg xmlns="http://www.w3.org/2000/svg" xmlns:xlink="http://www.w3.org/1999/xlink" width="300" height="220" viewBox="0 0 300 220"><defs><style>.a{fill:url(#a);}.b,.f{fill:#414141;}.b{font-size:16px;font-family:Poppins-Medium, Poppins;font-weight:500;}.c{fill:none;}.d{fill:#fdc501;}.e{fill:#a4d4ff;}</style><linearGradient id="a" x1="0.5" x2="0.5" y2="1" gradientUnits="objectBoundingBox"><stop offset="0" stop-color="#377ab5"/><stop offset="1" stop-color="#fff"/></linearGradient></defs><g transform="translate(-520 -353.254)"><path class="a" d="M458-329.945l151.151-168.28L758-329.945Z" transform="translate(62 851.478)"/><g transform="translate(569.916 377.478)">
<g transform="translate(63.476 11.029)"><rect class="c" width="75" height="75" transform="translate(-0.392 -0.254)"/><circle class="d" cx="15.698" cy="15.698" r="15.698" transform="translate(37.5 14.826)"/><circle class="e" cx="21.802" cy="21.802" r="21.802" transform="translate(0.872 24.419)"/><g transform="translate(-0.392 33.746)"><path class="f" d="M135.9,477.867H120.034a.567.567,0,0,0-.567.567v1.133a.567.567,0,1,0,1.133,0V479h15.3a.567.567,0,0,0,0-1.133Z" transform="translate(-111.534 -446.134)"/><path class="f" d="M187.733,157.567a.567.567,0,0,0,.567.567h2.267a.567.567,0,0,0,.567-.567v-3.4a.567.567,0,0,0-.567-.567H188.3a.567.567,0,0,0-.567.567v3.4Zm1.133-2.833H190V157h-1.133Z" transform="translate(-175.266 -143.4)"/><path class="f" d="M7.367,102.4H.567a.567.567,0,0,0-.567.567V114.3a.567.567,0,0,0,1.133,0V103.533H7.367a.567.567,0,0,0,0-1.133Z" transform="translate(0 -95.6)"/><path class="f" d="M409.6,362.367a.567.567,0,0,0,.567.567h2.267a.567.567,0,0,0,.567-.567v-3.4a.567.567,0,0,0-.567-.567h-2.267a.567.567,0,0,0-.567.567Zm1.133-2.833h1.133V361.8h-1.133Z" transform="translate(-382.4 -334.6)"/><path class="f" d="M2.833,307.2C.032,307.2,0,314.493,0,314.567a2.838,2.838,0,0,0,2.267,2.776v2.891a.567.567,0,1,0,1.133,0v-2.891a2.838,2.838,0,0,0,2.267-2.776C5.667,314.493,5.634,307.2,2.833,307.2Zm0,9.067a1.7,1.7,0,0,1-1.7-1.7c0-2.823.758-6.233,1.7-6.233s1.7,3.41,1.7,6.233A1.7,1.7,0,0,1,2.833,316.267Z" transform="translate(0 -286.8)"/><path class="f" d="M54.033,256H51.767a.567.567,0,0,0-.567.567V257.7a.567.567,0,1,0,1.133,0v-.567h1.133v2.833a.567.567,0,0,0,1.133,0v-3.4A.567.567,0,0,0,54.033,256Z" transform="translate(-47.8 -239)"/><path class="f" d="M410.167,158.134h2.267a.567.567,0,0,0,.567-.567v-3.4a.567.567,0,0,0-.567-.567h-2.267a.567.567,0,0,0-.567.567v3.4A.567.567,0,0,0,410.167,158.134Zm.567-3.4h1.133V157h-1.133Z" transform="translate(-382.4 -143.401)"/><path class="f" d="M54.033,153.6H51.767a.567.567,0,0,0-.567.567v3.4a.567.567,0,0,0,.567.567h2.267a.567.567,0,0,0,.567-.567v-3.4A.567.567,0,0,0,54.033,153.6Zm-.567,3.4H52.333v-2.267h1.133V157Z" transform="translate(-47.8 -143.4)"/><path class="f" d="M273.067,157.567a.567.567,0,0,0,.567.567H275.9a.567.567,0,0,0,.567-.567v-3.4a.567.567,0,0,0-.567-.567h-2.267a.567.567,0,0,0-.567.567Zm1.133-2.833h1.133V157H274.2Z" transform="translate(-254.934 -143.4)"/><path class="f" d="M399.9,102.4h-6.8a.567.567,0,1,0,0,1.133h6.233V126.3a1.619,1.619,0,0,0-.858-.079,2.263,2.263,0,0,0-3.951,0,1.667,1.667,0,0,0-.291-.025,1.7,1.7,0,0,0,0,3.4h4.533a1.7,1.7,0,0,0,1.7-1.7V102.967A.567.567,0,0,0,399.9,102.4Zm-1.133,26.067h-4.533a.567.567,0,1,1,0-1.133.56.56,0,0,1,.307.092.567.567,0,0,0,.859-.349,1.129,1.129,0,0,1,2.2,0,.567.567,0,0,0,.859.349.578.578,0,0,1,.874.474A.568.568,0,0,1,398.767,128.467Z" transform="translate(-366.467 -95.6)"/><path class="f" d="M273.634,55.734H275.9a.567.567,0,0,0,.567-.567v-3.4a.567.567,0,0,0-.567-.567h-2.267a.567.567,0,0,0-.567.567v3.4A.567.567,0,0,0,273.634,55.734Zm.567-3.4h1.133V54.6H274.2Z" transform="translate(-254.934 -47.801)"/><path class="f" d="M273.067,259.967a.567.567,0,0,0,.567.567H275.9a.567.567,0,0,0,.567-.567v-3.4A.567.567,0,0,0,275.9,256h-2.267a.567.567,0,0,0-.567.567Zm1.133-2.833h1.133V259.4H274.2Z" transform="translate(-254.934 -239)"/><path class="f" d="M188.3,55.734h2.267a.567.567,0,0,0,.567-.567v-3.4a.567.567,0,0,0-.567-.567H188.3a.567.567,0,0,0-.567.567v3.4A.567.567,0,0,0,188.3,55.734Zm.567-3.4H190V54.6h-1.133Z" transform="translate(-175.267 -47.801)"/><path class="f" d="M247.63,409.864a.567.567,0,1,0,.8,0A.6.6,0,0,0,247.63,409.864Z" transform="translate(-231.033 -382.499)"/><path class="f" d="M187.733,259.967a.567.567,0,0,0,.567.567h2.267a.567.567,0,0,0,.567-.567v-3.4a.567.567,0,0,0-.567-.567H188.3a.567.567,0,0,0-.567.567v3.4Zm1.133-2.833H190V259.4h-1.133Z" transform="translate(-175.266 -239)"/><path class="f" d="M170.667,358.967a.567.567,0,0,0,.567.567h1.7v5.1a.567.567,0,0,0,1.133,0v-5.1H178.6v5.1a.567.567,0,1,0,1.133,0v-5.1h1.7a.567.567,0,0,0,0-1.133h-10.2A.567.567,0,0,0,170.667,358.967Z" transform="translate(-159.334 -334.6)"/><path class="f" d="M409.6,259.967a.567.567,0,0,0,.567.567h2.267a.567.567,0,0,0,.567-.567v-3.4a.567.567,0,0,0-.567-.567h-2.267a.567.567,0,0,0-.567.567Zm1.133-2.833h1.133V259.4h-1.133Z" transform="translate(-382.4 -239)"/><path class="f" d="M151.834,0H137.1a.567.567,0,0,0-.567.567V30.033a.567.567,0,0,0,1.133,0V1.133h13.6v28.9a.567.567,0,1,0,1.133,0V.567A.567.567,0,0,0,151.834,0Z" transform="translate(-127.467)"/></g><g transform="translate(36.609 7.745)"><path class="f" d="M289.324,400.957A21.22,21.22,0,0,0,274.39,407.2a.664.664,0,0,0,.942.937,19.883,19.883,0,0,1,13.993-5.85.664.664,0,0,0,0-1.328Zm0,0" transform="translate(-255.99 -374.33)"/><path class="f" d="M178.706,387.584a.664.664,0,0,0-.922-.178,26.211,26.211,0,0,0-7.128,7.133.664.664,0,1,0,1.1.741,24.882,24.882,0,0,1,6.769-6.773A.664.664,0,0,0,178.706,387.584Zm0,0" transform="translate(-159.219 -361.572)"/><path class="f" d="M372.99,320.457a26.117,26.117,0,0,0-8.734,1.507.664.664,0,1,0,.443,1.252,24.793,24.793,0,0,1,8.291-1.431.664.664,0,1,0,0-1.328Zm0,0" transform="translate(-339.656 -299.176)"/><path class="f" d="M9.513,29.444A30.267,30.267,0,0,1,27.184,18.31h0a29.6,29.6,0,0,1,6.146-.647.664.664,0,1,0,0-1.328,31.249,31.249,0,0,0-5.618.511V15.411a9.835,9.835,0,0,0,3.718-7.53A9.906,9.906,0,0,0,27.468.147a.664.664,0,0,0-.832,0A9.907,9.907,0,0,0,22.67,7.882a9.836,9.836,0,0,0,3.718,7.53v1.705a31.443,31.443,0,0,0-3.723,1.094V14.322a.662.662,0,0,0-.193-.468h0l-3.719-3.741a.665.665,0,0,0-.471-.2H10.69a.664.664,0,0,0-.471.2L6.5,13.854h0a.662.662,0,0,0-.193.468v2.536q-.694-.127-1.395-.223V14.268A7.579,7.579,0,0,0,7.723,8.5,7.649,7.649,0,0,0,4.665,2.527a.664.664,0,0,0-.832,0A7.649,7.649,0,0,0,.774,8.5a7.579,7.579,0,0,0,2.811,5.767v2.215q-1.453-.136-2.922-.137a.664.664,0,0,0,0,1.328,29.951,29.951,0,0,1,15.082,4.07,31.349,31.349,0,0,0-3.137,2.436A26.419,26.419,0,0,0,.662,21.292a.664.664,0,1,0,0,1.328,25.07,25.07,0,0,1,10.9,2.524A31.385,31.385,0,0,0,8.74,28.27,20.773,20.773,0,0,0,.662,26.638a.664.664,0,1,0,0,1.328,19.435,19.435,0,0,1,7.251,1.4q-.688.956-1.305,1.965L5.6,32.991a.664.664,0,1,0,1.134.692l1.012-1.658a29.48,29.48,0,0,1,1.706-2.5.628.628,0,0,0,.066-.086ZM24,7.882a8.474,8.474,0,0,1,3.054-6.348,8.474,8.474,0,0,1,3.054,6.348,8.267,8.267,0,0,1-2.39,5.7V8.5a.664.664,0,1,0-1.328,0v5.085A8.266,8.266,0,0,1,24,7.882ZM2.1,8.5A6.214,6.214,0,0,1,4.248,3.92,6.214,6.214,0,0,1,6.4,8.5a6,6,0,0,1-1.483,3.888V7.969a.664.664,0,1,0-1.328,0v4.419A6,6,0,0,1,2.1,8.5Zm18.3,5.157h-5.72l-2.4-2.413h5.72ZM10.69,11.523l2.122,2.135H8.568ZM7.635,14.986h6.109v4.223q-.462-.212-.93-.41v-2.23a.664.664,0,0,0-.664-.664H9.229a.664.664,0,0,0-.664.664v.79q-.463-.121-.93-.228Zm3.852,3.289q-.79-.291-1.594-.539v-.5h1.594Zm3.586,1.584V14.986h6.264v3.74a31.167,31.167,0,0,0-3.327,1.614q-.517.29-1.021.6-.942-.575-1.917-1.081Zm0,0"/><path class="f" d="M398.062,81.328a.665.665,0,1,0-.469-.195A.668.668,0,0,0,398.062,81.328Zm0,0" transform="translate(-371.01 -74.687)"/><path class="f" d="M317.863,362.531a.663.663,0,1,0,.47-.195A.67.67,0,0,0,317.863,362.531Zm0,0" transform="translate(-296.575 -338.274)"/></g></g></g></g></svg>