<svg xmlns="http://www.w3.org/2000/svg" xmlns:xlink="http://www.w3.org/1999/xlink" width="300" height="195" viewBox="0 0 300 195"><defs><style>.a{fill:url(#a);}.b,.f{fill:#414141;}.b{font-size:16px;font-family:Poppins-Medium, Poppins;font-weight:500;}.c{fill:none;}.d{fill:#fdc501;}.e{fill:#a4d4ff;}.f{fill-rule:evenodd;}</style><linearGradient id="a" x1="0.5" x2="0.5" y2="1" gradientUnits="objectBoundingBox"><stop offset="0" stop-color="#fdc501"/><stop offset="1" stop-color="#fff"/></linearGradient></defs><g transform="translate(-520 -353.254)"><path class="a" d="M458-329.945l151.151-168.28L758-329.945Z" transform="translate(62 851.478)"/><g transform="translate(569.916 377.478)">
<g transform="translate(62.083 10.774)"><rect class="c" width="75" height="75"/><circle class="d" cx="15.698" cy="15.698" r="15.698" transform="translate(37.5 13.826)"/><circle class="e" cx="21.802" cy="21.802" r="21.802" transform="translate(0.872 23.419)"/><g transform="translate(8 5.79)"><g transform="translate(2 0.21)"><path class="f" d="M231.48,151.987V94.04l24.64,13.973v43.973Zm-2.24,0V90.21l29.12,16.514v8.257l22.4,12.7v24.3H283v2.223H227v-2.223Zm49.28,0V128.972L258.36,117.54v34.447ZM233.72,105.3h4.48v2.223h-4.48Zm0,6.669h4.48V114.2h-4.48Zm0,6.669h4.48v2.223h-4.48Zm6.72-6.669h6.72V114.2h-6.72Zm0,6.669h6.72v2.223h-6.72Zm8.96-6.669h4.48V114.2H249.4Zm0,6.669h4.48v2.223H249.4Zm-15.68,6.669h4.48v2.223h-4.48Zm6.72,0h6.72v2.223h-6.72Zm8.96,0h4.48v2.223H249.4Zm-15.68,6.669h4.48V134.2h-4.48Zm6.72,0h6.72V134.2h-6.72Zm8.96,0h4.48V134.2H249.4Zm-15.68,6.669h4.48v2.223h-4.48Zm6.72,0h6.72v2.223h-6.72Zm8.96,0h4.48v2.223H249.4Zm-15.68,6.669h4.48v2.223h-4.48Zm6.72,0h6.72v2.223h-6.72Zm8.96,0h4.48v2.223H249.4Zm11.2,0h6.72v2.223H260.6Zm8.96,0h6.72v2.223h-6.72Zm-8.96-6.669h6.72v2.223H260.6Zm8.96,0h6.72v2.223h-6.72Zm-8.96-6.669h6.72V134.2H260.6Zm8.96,0h6.72V134.2h-6.72Zm-8.96-6.669h6.72v2.223H260.6Z" transform="translate(-227 -90.21)"/></g></g></g></g></g></svg>