<svg xmlns="http://www.w3.org/2000/svg" xmlns:xlink="http://www.w3.org/1999/xlink" width="300" height="195" viewBox="0 0 300 195"><defs><style>.a{fill:url(#a);}.b,.f{fill:#414141;}.b{font-size:16px;font-family:Poppins-Medium, Poppins;font-weight:500;}.c{fill:none;}.d{fill:#fdc501;}.e{fill:#a4d4ff;}</style><linearGradient id="a" x1="0.5" x2="0.5" y2="1" gradientUnits="objectBoundingBox"><stop offset="0" stop-color="#377ab5"/><stop offset="1" stop-color="#fff"/></linearGradient></defs><g transform="translate(-520 -353.254)"><path class="a" d="M458-329.945l151.151-168.28L758-329.945Z" transform="translate(62 851.478)"/><g transform="translate(569.916 377.478)">
<g transform="translate(63.476 11.029)"><rect class="c" width="75" height="75" transform="translate(-0.392 -0.254)"/><circle class="d" cx="15.698" cy="15.698" r="15.698" transform="translate(37.5 14.826)"/><circle class="e" cx="21.802" cy="21.802" r="21.802" transform="translate(0.872 24.419)"/><g transform="translate(-47.456 4.746)"><g transform="translate(60.064 0)"><path class="f" d="M107.388,33.58H100.6a7.936,7.936,0,0,0-2.006-1.332l-.019-.008L88.2,28.162v-2.4a8.387,8.387,0,0,0,3.082-5.419,3.853,3.853,0,0,0,2.609-6.311v-3.25A11.161,11.161,0,0,0,91.477,3.85,10.894,10.894,0,0,0,85.428.024.941.941,0,0,0,84.3.746a.956.956,0,0,0,.711,1.143,9.04,9.04,0,0,1,7,8.9v2.032a3.906,3.906,0,0,0-.645-.124v-.02c0-.786-.131-.782-2.762-3.654h0a1.6,1.6,0,0,0-2.069-.256,16.537,16.537,0,0,1-10.112,2.764,1.621,1.621,0,0,0-1.676,1.191,4.351,4.351,0,0,0-.707.157v-2.09a9.04,9.04,0,0,1,7-8.9A.956.956,0,0,0,81.745.746.941.941,0,0,0,80.619.024,10.894,10.894,0,0,0,74.57,3.85a11.161,11.161,0,0,0-2.415,6.935V14.12a3.651,3.651,0,0,0-.9,2.395,3.845,3.845,0,0,0,1.309,2.9,3.807,3.807,0,0,0,2.2.931A8.483,8.483,0,0,0,78.022,25.9v2.263L67.661,32.241l-.018.007A7.955,7.955,0,0,0,63,39.524V56.9L61.115,58.8a3.663,3.663,0,0,0-.01,5.128,3.532,3.532,0,0,0,5.051.01L78.371,51.588l7.771,6.781a3.524,3.524,0,0,0,4.945-.283l13.695-14.973,1.42,1.441a1.674,1.674,0,0,0,2.861-1.2v-8.07A1.691,1.691,0,0,0,107.388,33.58ZM91.364,14.629a1.926,1.926,0,0,1,0,3.775ZM74.684,18.4a1.9,1.9,0,0,1,0-3.728ZM98.172,34.167a1.76,1.76,0,0,0-.281.463,1.715,1.715,0,0,0,.363,1.854l1.474,1.5-3.4,3.72v-.563a.942.942,0,1,0-1.883,0V43.76l-6.251,6.834-.6-.525-.772-4.63a.942.942,0,0,0-1.085-.783.954.954,0,0,0-.771,1.1l.394,2.361L81.442,44.7l.914-5.484h1.516l.346,2.077a.942.942,0,0,0,1.085.783.954.954,0,0,0,.771-1.1l-.417-2.5.646-.988.306.221a1.584,1.584,0,0,0,2.352-.6h0l2.719-5.533C98.437,34.237,97.879,34,98.172,34.167Zm-13.4,2.216-.606.926h-2.1l-.606-.926,1.655-1.193ZM79.9,28.471V26.953a8.851,8.851,0,0,0,3.224.594,8.192,8.192,0,0,0,3.189-.653v1.585l-3.2,4.015Zm10.013,2.416-2.49,5.068-2.953-2.129L86.889,30.8l.67-.84Zm-13.351-11.7V13.452a18.487,18.487,0,0,0,10.808-2.965c1.214,1.323,1.875,2.022,2.106,2.3,0,7.193,0,6.273,0,6.56a6.456,6.456,0,0,1-12.91-.164Zm2.1,10.775,3.085,3.867L78.8,35.955l-2.49-5.068ZM68.354,34.018l6.193-2.438,2.719,5.533h0a1.6,1.6,0,0,0,1.041.848,1.575,1.575,0,0,0,1.311-.251l.306-.22.646.988-.819,4.912a3.553,3.553,0,0,0-4.08.691L71.792,48V41.138a.942.942,0,1,0-1.883,0v8.772l-5.025,5.082V39.523h0A6.053,6.053,0,0,1,68.354,34.018Zm38.826,8.826-1.757-1.784a.93.93,0,0,0-1.356.026l-14.359,15.7a1.667,1.667,0,0,1-2.339.134l-8.432-7.358a.931.931,0,0,0-1.278.048L64.828,62.587a1.67,1.67,0,0,1-2.388,0,1.732,1.732,0,0,1,0-2.425L77,45.436a1.683,1.683,0,0,1,2.293-.086l8.359,7.294a.931.931,0,0,0,1.3-.074l12.77-13.962a.966.966,0,0,0-.024-1.326l-1.762-1.789h7.241Z" transform="translate(-60.064 0)"/></g></g></g></g></g></svg>