<svg xmlns="http://www.w3.org/2000/svg" xmlns:xlink="http://www.w3.org/1999/xlink" width="300" height="195" viewBox="0 0 300 195"><defs><style>.a{fill:url(#a);}.b,.f{fill:#414141;}.b{font-size:16px;font-family:Poppins-Medium, Poppins;font-weight:500;}.c{fill:none;}.d{fill:#fdc501;}.e{fill:#a4d4ff;}</style><linearGradient id="a" x1="0.5" x2="0.5" y2="1" gradientUnits="objectBoundingBox"><stop offset="0" stop-color="#377ab5"/><stop offset="1" stop-color="#fff"/></linearGradient></defs><g transform="translate(-520 -353.254)"><path class="a" d="M458-329.945l151.151-168.28L758-329.945Z" transform="translate(62 851.478)"/><g transform="translate(569.916 377.478)">
<g transform="translate(63.476 11.029)"><rect class="c" width="75" height="75" transform="translate(-0.392 -0.254)"/><circle class="d" cx="15.698" cy="15.698" r="15.698" transform="translate(37.5 14.826)"/><circle class="e" cx="21.802" cy="21.802" r="21.802" transform="translate(0.872 24.419)"/><g transform="translate(3.605 3.783)"><path class="f" d="M65.442,34.55l-5.9,5.9a1.46,1.46,0,1,1-2.065-2.065l3.362-3.392H52.611a1.475,1.475,0,0,1,0-2.95h8.229l-3.362-3.392a1.46,1.46,0,1,1,2.065-2.065l5.9,5.9a1.062,1.062,0,0,1,.324.472,1.475,1.475,0,0,1,0,1.121,1.062,1.062,0,0,1-.324.472Zm-64,0,5.9,5.9A1.46,1.46,0,1,0,9.4,38.384L6.039,34.992h8.229a1.475,1.475,0,0,0,0-2.95H6.039L9.4,28.651a1.46,1.46,0,1,0-2.065-2.065l-5.9,5.9a1.062,1.062,0,0,0-.324.472,1.475,1.475,0,0,0,0,1.121,1.062,1.062,0,0,0,.324.472ZM28.573,9.479l3.392-3.362v8.229a1.475,1.475,0,0,0,2.95,0V6.117l3.392,3.362a1.46,1.46,0,1,0,2.065-2.065l-5.9-5.9A1.062,1.062,0,0,0,34,1.073a1.475,1.475,0,0,0-1.121,0,1.062,1.062,0,0,0-.472.324l-5.9,5.9a1.46,1.46,0,1,0,2.065,2.065ZM48.63,18.328a1.416,1.416,0,0,0,2.065,0l6.341-6.312V17.3a1.475,1.475,0,1,0,2.95,0V8.447a1.209,1.209,0,0,0,0-.56,1.5,1.5,0,0,0-.914-.914,1.209,1.209,0,0,0-.56,0H49.662a1.475,1.475,0,0,0,0,2.95h5.28L48.63,16.263a1.416,1.416,0,0,0,0,2.065ZM8.369,18.77A1.475,1.475,0,0,0,9.844,17.3v-5.28l6.341,6.312a1.46,1.46,0,1,0,2.065-2.065L11.938,9.922h5.28a1.475,1.475,0,0,0,0-2.95H8.369a1.209,1.209,0,0,0-.56,0,1.5,1.5,0,0,0-.914.914,1.209,1.209,0,0,0,0,.56V17.3A1.475,1.475,0,0,0,8.369,18.77ZM18.25,48.708a1.416,1.416,0,0,0-2.065,0L9.844,55.02V49.74a1.475,1.475,0,0,0-2.95,0v8.849a1.209,1.209,0,0,0,0,.56,1.5,1.5,0,0,0,.8.8,1.209,1.209,0,0,0,.56,0H17.1a1.475,1.475,0,0,0,0-2.95H11.938l6.312-6.341a1.416,1.416,0,0,0,0-1.947Zm40.261-.442a1.475,1.475,0,0,0-1.475,1.475v5.28l-6.341-6.312a1.46,1.46,0,1,0-2.065,2.065l6.312,6.341h-5.28a1.475,1.475,0,0,0,0,2.95H58.51a1.209,1.209,0,0,0,.56,0,1.5,1.5,0,0,0,.8-.8,1.209,1.209,0,0,0,0-.56V49.858a1.475,1.475,0,0,0-1.357-1.593Zm-20.2,9.291-3.392,3.362V52.689a1.475,1.475,0,0,0-2.95,0v8.229l-3.392-3.362a1.46,1.46,0,1,0-2.065,2.065l5.9,5.9a1.062,1.062,0,0,0,.472.324,1.386,1.386,0,0,0,1.121,0,1.062,1.062,0,0,0,.472-.324l5.9-5.9a1.46,1.46,0,1,0-2.065-2.065Zm9.881-24.038a1.445,1.445,0,0,1-.56,1.15c-.973.8-9.733,7.7-14.187,7.7s-13.214-6.9-14.187-7.7a1.475,1.475,0,0,1,0-2.3c.973-.8,9.733-7.7,14.187-7.7s13.214,6.9,14.187,7.7a1.445,1.445,0,0,1,.56,1.15Zm-11.8,0a2.95,2.95,0,1,0-2.95,2.95A2.95,2.95,0,0,0,36.389,33.518Zm-13.8,0a53.651,53.651,0,0,0,7.374,4.719,5.9,5.9,0,0,1,0-9.438,53.652,53.652,0,0,0-7.374,4.719Zm21.708,0A53.651,53.651,0,0,0,36.92,28.8a5.9,5.9,0,0,1,0,9.438,53.652,53.652,0,0,0,7.374-4.719Z" transform="translate(0 0)"/></g></g></g></g></svg>