<svg xmlns="http://www.w3.org/2000/svg" xmlns:xlink="http://www.w3.org/1999/xlink" width="300" height="195" viewBox="0 0 300 195"><defs><style>.a{fill:url(#a);}.b,.f{fill:#414141;}.b{font-size:16px;font-family:Poppins-Medium, Poppins;font-weight:500;}.c{fill:none;}.d{fill:#fdc501;}.e{fill:#a4d4ff;}</style><linearGradient id="a" x1="0.5" x2="0.5" y2="1" gradientUnits="objectBoundingBox"><stop offset="0" stop-color="#fdc501"/><stop offset="1" stop-color="#fff"/></linearGradient></defs><g transform="translate(-520 -353.254)"><path class="a" d="M458-329.945l151.151-168.28L758-329.945Z" transform="translate(62 851.478)"/><g transform="translate(569.916 377.478)">
<g transform="translate(62.476 11.029)"><rect class="c" width="75" height="75" transform="translate(0.608 -0.254)"/><circle class="d" cx="15.698" cy="15.698" r="15.698" transform="translate(37.5 14.826)"/><circle class="e" cx="21.802" cy="21.802" r="21.802" transform="translate(0.872 24.419)"/><g transform="translate(-325.392 5.246)"><path class="f" d="M365.038,80.954l-1.663.862-1.663-.862-14.448-7.49L339,77.749l24.375,12.638L387.75,77.749l-8.264-4.285Z" transform="translate(0 -25.887)"/><path class="f" d="M365.038,61.51l-1.663.862-1.663-.862-14.448-7.49L339,58.3l24.375,12.639L387.75,58.3l-8.264-4.285Z" transform="translate(0 -19.082)"/><path class="f" d="M371.639-.5a9.028,9.028,0,0,0-9.028,9.028c0,4.987,9.028,18.056,9.028,18.056s9.028-13.07,9.028-18.056A9.028,9.028,0,0,0,371.639-.5Zm0,12.639a3.611,3.611,0,1,1,3.611-3.611A3.611,3.611,0,0,1,371.639,12.139Z" transform="translate(-8.264)"/><path class="f" d="M371.659,28.33c-.859,1.62-1.779,3.205-2.648,4.629,2.592.814,4.295,2.174,4.295,3.715,0,2.492-4.446,4.514-9.93,4.514s-9.93-2.021-9.93-4.514c0-1.541,1.7-2.9,4.295-3.715-.869-1.424-1.789-3.009-2.648-4.629L339,36.675l24.375,12.638L387.75,36.675Z" transform="translate(0 -10.09)"/></g></g></g></g></svg>