<svg xmlns="http://www.w3.org/2000/svg" xmlns:xlink="http://www.w3.org/1999/xlink" width="300" height="195" viewBox="0 0 300 195"><defs><style>.a{fill:url(#a);}.b,.f{fill:#414141;}.b{font-size:16px;font-family:Poppins-Medium, Poppins;font-weight:500;}.c{fill:none;}.d{fill:#fdc501;}.e{fill:#a4d4ff;}</style><linearGradient id="a" x1="0.5" x2="0.5" y2="1" gradientUnits="objectBoundingBox"><stop offset="0" stop-color="#fdc501"/><stop offset="1" stop-color="#fff"/></linearGradient></defs><g transform="translate(-520 -353.254)"><path class="a" d="M458-329.945l151.151-168.28L758-329.945Z" transform="translate(62 851.478)"/><g transform="translate(569.916 377.478)">
<g transform="translate(62.476 11.029)"><rect class="c" width="75" height="75" transform="translate(0.608 -0.254)"/><circle class="d" cx="15.698" cy="15.698" r="15.698" transform="translate(37.5 14.826)"/><circle class="e" cx="21.802" cy="21.802" r="21.802" transform="translate(0.872 24.419)"/><g transform="translate(5.608 4.746)"><path class="f" d="M70.567,172.834h-9.75a1.083,1.083,0,0,1,0-2.167h9.75a1.083,1.083,0,1,1,0,2.167Zm0,0" transform="translate(-52.151 -149.001)"/><path class="f" d="M64.068,206.967h-3.25a1.083,1.083,0,0,1,0-2.167h3.25a1.083,1.083,0,0,1,0,2.167Zm0,0" transform="translate(-52.151 -178.801)"/><path class="f" d="M122.715,206.967h-2.167a1.083,1.083,0,1,1,0-2.167h2.167a1.083,1.083,0,1,1,0,2.167Zm0,0" transform="translate(-104.298 -178.801)"/><path class="f" d="M100.367,138.7H94.95a1.083,1.083,0,0,1,0-2.167h5.417a1.083,1.083,0,1,1,0,2.167Zm0,0" transform="translate(-81.95 -119.202)"/><path class="f" d="M368.148,292.3h-8.667a1.083,1.083,0,1,1,0-2.167h8.667a1.083,1.083,0,1,1,0,2.167Zm0,0" transform="translate(-312.899 -253.299)"/><path class="f" d="M363.815,326.432h-4.333a1.083,1.083,0,1,1,0-2.167h4.333a1.083,1.083,0,1,1,0,2.167Zm0,0" transform="translate(-312.898 -283.099)"/><path class="f" d="M368.148,215.5h-8.667a1.083,1.083,0,1,1,0-2.167h8.667a1.083,1.083,0,1,1,0,2.167Zm0,0" transform="translate(-312.899 -186.248)"/><path class="f" d="M363.815,249.632h-4.333a1.084,1.084,0,0,1,0-2.167h4.333a1.084,1.084,0,0,1,0,2.167Zm0,0" transform="translate(-312.898 -216.048)"/><path class="f" d="M368.148,138.7h-8.667a1.083,1.083,0,1,1,0-2.167h8.667a1.083,1.083,0,1,1,0,2.167Zm0,0" transform="translate(-312.899 -119.202)"/><path class="f" d="M363.815,172.834h-4.333a1.083,1.083,0,1,1,0-2.167h4.333a1.083,1.083,0,1,1,0,2.167Zm0,0" transform="translate(-312.898 -149.001)"/><path class="f" d="M146.149,251.936a1.083,1.083,0,0,1-.766-1.849l5.417-5.416a1.082,1.082,0,0,1,1.532,0l4.609,4.609,8.986-9.985a1.083,1.083,0,1,1,1.61,1.45l-9.75,10.833a1.085,1.085,0,0,1-.777.359,1.151,1.151,0,0,1-.794-.317l-4.651-4.651-4.651,4.651a1.08,1.08,0,0,1-.766.317Zm0,0" transform="translate(-126.649 -208.603)"/><path class="f" d="M71.658,296.639a1.076,1.076,0,0,1-.676-.237l-4.74-3.793L61.5,296.4a1.083,1.083,0,0,1-1.353-1.692l5.417-4.333a1.085,1.085,0,0,1,1.353,0l5.417,4.333a1.083,1.083,0,0,1-.677,1.929Zm0,0" transform="translate(-52.158 -253.306)"/><path class="f" d="M271.035,241.1h-5.417a1.083,1.083,0,0,1,0-2.167h5.417a1.083,1.083,0,0,1,0,2.167Zm0,0" transform="translate(-230.951 -208.6)"/><path class="f" d="M308.282,246.517a1.083,1.083,0,0,1-1.084-1.084v-5.417a1.083,1.083,0,0,1,2.167,0v5.417A1.083,1.083,0,0,1,308.282,246.517Zm0,0" transform="translate(-268.199 -208.6)"/><path class="f" d="M177.168,141a6.5,6.5,0,1,1,6.5-6.5A6.506,6.506,0,0,1,177.168,141Zm0-10.833A4.333,4.333,0,1,0,181.5,134.5,4.338,4.338,0,0,0,177.168,130.166Zm0,0" transform="translate(-149.001 -111.75)"/><path class="f" d="M248.548,391.583a1.083,1.083,0,0,1-1.084-1.084v-5.416a1.084,1.084,0,1,1,2.167,0V390.5A1.083,1.083,0,0,1,248.548,391.583Zm0,0" transform="translate(-216.049 -335.25)"/><path class="f" d="M218.749,437.5a5.417,5.417,0,1,1,5.417-5.417A5.423,5.423,0,0,1,218.749,437.5Zm0-8.667a3.25,3.25,0,1,0,3.25,3.25A3.254,3.254,0,0,0,218.749,428.835Zm0,0" transform="translate(-186.249 -372.501)"/><path class="f" d="M63.916,110.516H1.083A1.083,1.083,0,0,1,0,109.433V69.349a1.083,1.083,0,0,1,1.084-1.084H63.916A1.083,1.083,0,0,1,65,69.349v40.083a1.083,1.083,0,0,1-1.084,1.083Zm-61.75-2.167H62.833V70.432H2.167Zm0,0" transform="translate(0 -59.599)"/><path class="f" d="M140.315,40.633H103.481A1.083,1.083,0,0,1,102.4,39.55v-2a3.416,3.416,0,0,1,3.413-3.412h32.175a3.416,3.416,0,0,1,3.413,3.412v2a1.083,1.083,0,0,1-1.084,1.083Zm-35.75-2.167h34.667v-.921a1.248,1.248,0,0,0-1.246-1.246H105.811a1.248,1.248,0,0,0-1.246,1.246Zm0,0" transform="translate(-89.398 -29.8)"/><path class="f" d="M248.548,6.5a1.083,1.083,0,0,1-1.084-1.083V1.084a1.084,1.084,0,1,1,2.167,0V5.417A1.083,1.083,0,0,1,248.548,6.5Zm0,0" transform="translate(-216.049)"/><path class="f" d="M248.548,13.962a1.083,1.083,0,0,1-.651-1.949l4.333-3.25a1.083,1.083,0,1,1,1.3,1.732l-4.333,3.25a1.079,1.079,0,0,1-.649.217Zm0,0" transform="translate(-216.047 -7.462)"/><path class="f" d="M218.749,13.962a1.079,1.079,0,0,1-.649-.217l-4.333-3.25a1.083,1.083,0,1,1,1.3-1.732l4.333,3.25a1.083,1.083,0,0,1-.651,1.949Zm0,0" transform="translate(-186.25 -7.462)"/></g></g></g></g></svg>