<svg xmlns="http://www.w3.org/2000/svg" xmlns:xlink="http://www.w3.org/1999/xlink" width="300" height="195" viewBox="0 0 300 195"><defs><style>.a{fill:url(#a);}.b,.e{fill:#414141;}.b{font-size:16px;font-family:Poppins-Medium, Poppins;font-weight:500;}.c{fill:none;}.d{fill:#a4d4ff;}.f{fill:#377ab5;}.g{fill:#fff;}</style><linearGradient id="a" x1="0.5" x2="0.5" y2="1" gradientUnits="objectBoundingBox"><stop offset="0" stop-color="#fdc501"/><stop offset="1" stop-color="#fff"/></linearGradient></defs><g transform="translate(-520 -353.254)"><path class="a" d="M458-329.945l151.151-168.28L758-329.945Z" transform="translate(62 851.478)"/><g transform="translate(569.916 377.478)">
<g transform="translate(62.476 11.029)"><rect class="c" width="75" height="75" transform="translate(-0.392 -0.254)"/><circle class="d" cx="21.802" cy="21.802" r="21.802" transform="translate(0.872 24.419)"/><g transform="translate(2.108 3.164)"><path class="e" d="M47.849,25.736a4.618,4.618,0,1,0-4.659-4.618A4.639,4.639,0,0,0,47.849,25.736Zm0-6.53a1.9,1.9,0,1,0,0,.007Z" transform="translate(-12.849 -3.837)"/><path class="e" d="M62.492,56.232h-.807V53.92a4.757,4.757,0,0,0-3.8-4.645V27.243h2.976a1.367,1.367,0,0,0,1.289-.926,1.349,1.349,0,0,0-.468-1.508L35.842,4.865a1.378,1.378,0,0,0-1.676,0L8.316,24.808a1.349,1.349,0,0,0-.469,1.505,1.367,1.367,0,0,0,1.283.929h2.976V49.282A4.757,4.757,0,0,0,8.316,53.92v2.312H7.508a4.964,4.964,0,1,0,0,9.928H62.492a4.964,4.964,0,1,0,0-9.928Zm-7.335-7.059h-4.42V27.243h4.441ZM29.191,27.243h4.441v21.93H29.191ZM26.454,49.18H22V27.243h4.441Zm9.914-21.937h4.441v21.93H36.368Zm7.177,0H48v21.93H43.546ZM35,7.673,56.895,24.53H13.105ZM19.263,27.243v21.93h-4.42V27.243ZM11.053,53.92a2.044,2.044,0,0,1,2.053-2.034H56.895a2.044,2.044,0,0,1,2.053,2.034v2.312H11.053Zm51.453,9.494h-55a2.251,2.251,0,1,1,0-4.5H62.492a2.251,2.251,0,1,1,0,4.5Z"/></g><circle class="f" cx="15.698" cy="15.698" r="15.698" transform="translate(37.5 14.826)"/><path class="g" d="M12.7,20.633H7.936a.794.794,0,0,1-.794-.794V18.448c-.11-.044-.22-.09-.33-.139l-.985.985a.817.817,0,0,1-1.122,0L1.339,15.928a.794.794,0,0,1,0-1.122l.985-.986c-.049-.11-.094-.219-.138-.329H.794A.794.794,0,0,1,0,12.7V7.936a.794.794,0,0,1,.794-.794H2.186c.044-.11.089-.22.138-.329l-.985-.986a.794.794,0,0,1,0-1.122L4.705,1.339a.817.817,0,0,1,1.122,0l.985.985c.11-.048.22-.094.33-.139V.794A.794.794,0,0,1,7.936,0H12.7a.794.794,0,0,1,.794.794V2.185c.11.044.22.09.33.139l.985-.985a.817.817,0,0,1,1.122,0l3.366,3.366a.794.794,0,0,1,0,1.122l-.985.986c.049.11.094.219.138.329H19.84a.794.794,0,0,1,.794.794V12.7a.794.794,0,0,1-.794.794H18.448c-.044.11-.089.22-.138.329l.985.986a.794.794,0,0,1,0,1.122l-3.366,3.366a.817.817,0,0,1-1.122,0l-.985-.985c-.11.048-.22.094-.33.139v1.391A.794.794,0,0,1,12.7,20.633ZM8.729,19.046H11.9V17.888a.794.794,0,0,1,.556-.757,7.105,7.105,0,0,0,1.158-.484.794.794,0,0,1,.928.142l.822.822,2.244-2.244-.822-.822a.794.794,0,0,1-.142-.928,7.2,7.2,0,0,0,.484-1.157.794.794,0,0,1,.757-.556h1.157V8.729H17.888a.794.794,0,0,1-.757-.556,7.2,7.2,0,0,0-.484-1.157.794.794,0,0,1,.142-.928l.822-.822L15.367,3.022l-.822.822a.794.794,0,0,1-.928.142A7.1,7.1,0,0,0,12.459,3.5a.794.794,0,0,1-.556-.757V1.587H8.729V2.745a.794.794,0,0,1-.556.757,7.105,7.105,0,0,0-1.158.484.794.794,0,0,1-.928-.142l-.821-.822L3.022,5.266l.822.822a.794.794,0,0,1,.142.928A7.2,7.2,0,0,0,3.5,8.174a.794.794,0,0,1-.757.556H1.587V11.9H2.745a.794.794,0,0,1,.757.556,7.2,7.2,0,0,0,.484,1.157.794.794,0,0,1-.142.928l-.822.822,2.244,2.244.822-.822a.794.794,0,0,1,.928-.142,7.105,7.105,0,0,0,1.158.484.794.794,0,0,1,.556.757Z" transform="translate(42.896 20.033)"/><path class="g" d="M11.762,16.523a4.761,4.761,0,1,1,4.762-4.761A4.761,4.761,0,0,1,11.762,16.523Zm0-7.936a3.174,3.174,0,1,0,3.174,3.174A3.174,3.174,0,0,0,11.762,8.587Z" transform="translate(41.451 18.589)"/></g></g></g></svg>