<svg xmlns="http://www.w3.org/2000/svg" xmlns:xlink="http://www.w3.org/1999/xlink" width="300" height="195" viewBox="0 0 300 195"><defs><style>.a{fill:url(#a);}.b,.f{fill:#414141;}.b{font-size:16px;font-family:Poppins-Medium, Poppins;font-weight:500;}.c{fill:none;}.d{fill:#fdc501;}.e{fill:#a4d4ff;}</style><linearGradient id="a" x1="0.5" x2="0.5" y2="1" gradientUnits="objectBoundingBox"><stop offset="0" stop-color="#fdc501"/><stop offset="1" stop-color="#fff"/></linearGradient></defs><g transform="translate(-520 -353.254)"><path class="a" d="M458-329.945l151.151-168.28L758-329.945Z" transform="translate(62 851.478)"/><g transform="translate(569.916 377.478)">
<g transform="translate(62.083 10.774)"><rect class="c" width="75" height="75"/><circle class="d" cx="15.698" cy="15.698" r="15.698" transform="translate(37.5 13.826)"/><circle class="e" cx="21.802" cy="21.802" r="21.802" transform="translate(0.872 23.419)"/><g transform="translate(4 4)"><g transform="translate(1 1)"><path class="f" d="M56.548,13A1.52,1.52,0,0,0,55,14.548V65.1a1.548,1.548,0,1,0,3.1,0V14.548A1.52,1.52,0,0,0,56.548,13Z" transform="translate(-27.143 -6.81)"/><path class="f" d="M31.006,113.037a1.128,1.128,0,0,0,.155.258.906.906,0,0,0,.206.258,1.485,1.485,0,0,0,1.083.464,1.4,1.4,0,0,0,1.083-.464A1.485,1.485,0,0,0,34,112.47a.654.654,0,0,0-.052-.31.733.733,0,0,0-.1-.31c-.052-.1-.1-.155-.155-.258a.906.906,0,0,0-.206-.258l-.206-.206c-.1-.052-.155-.1-.258-.155s-.206-.052-.31-.1a1.53,1.53,0,0,0-1.393.413,1.125,1.125,0,0,0-.206.258c-.052.1-.1.155-.155.258s-.052.206-.1.31c0,.1-.052.206-.052.31a.654.654,0,0,0,.052.31C30.955,112.882,30.955,112.986,31.006,113.037Z" transform="translate(-15.427 -54.176)"/><circle class="f" cx="1.548" cy="1.548" r="1.548" transform="translate(15.476 33.016)"/><circle class="f" cx="1.548" cy="1.548" r="1.548" transform="translate(15.476 27.083)"/><circle class="f" cx="1.548" cy="1.548" r="1.548" transform="translate(15.476 50.813)"/><circle class="f" cx="1.548" cy="1.548" r="1.548" transform="translate(15.476 44.881)"/><circle class="f" cx="1.548" cy="1.548" r="1.548" transform="translate(15.476 38.948)"/><path class="f" d="M32.5,45.059a1.4,1.4,0,0,0,1.083-.464,1.485,1.485,0,0,0,.464-1.083,1.4,1.4,0,0,0-.464-1.083l-.206-.206c-.1-.052-.155-.1-.258-.155s-.206-.052-.31-.1a1.257,1.257,0,0,0-.619,0,.733.733,0,0,0-.31.1c-.1.052-.155.1-.258.155a.4.4,0,0,0-.206.206c-.052.1-.155.155-.206.258s-.1.155-.155.258-.052.206-.1.31c0,.1-.052.206-.052.31a1.4,1.4,0,0,0,.464,1.083A1.8,1.8,0,0,0,32.5,45.059Z" transform="translate(-15.475 -20.813)"/><path class="f" d="M68.548,13A1.52,1.52,0,0,0,67,14.548V65.1a1.548,1.548,0,1,0,3.1,0V14.548A1.52,1.52,0,0,0,68.548,13Z" transform="translate(-32.952 -6.81)"/><circle class="f" cx="1.548" cy="1.548" r="1.548" transform="translate(45.913 50.556)"/><path class="f" d="M91.548,111A1.52,1.52,0,0,0,90,112.548a1.548,1.548,0,1,0,3.1,0A1.52,1.52,0,0,0,91.548,111Z" transform="translate(-44.087 -54.254)"/><circle class="f" cx="1.548" cy="1.548" r="1.548" transform="translate(45.913 44.365)"/><circle class="f" cx="1.548" cy="1.548" r="1.548" transform="translate(45.913 31.984)"/><circle class="f" cx="1.548" cy="1.548" r="1.548" transform="translate(45.913 25.794)"/><circle class="f" cx="1.548" cy="1.548" r="1.548" transform="translate(45.913 38.175)"/><path class="f" d="M64.452,62.9H62.389V28.341a1.52,1.52,0,0,0-1.548-1.548H56.2v-8.77a1.52,1.52,0,0,0-1.548-1.548H50.008V11.833a1.52,1.52,0,0,0-1.548-1.548H43.817V2.548A1.52,1.52,0,0,0,42.27,1H24.214a1.52,1.52,0,0,0-1.548,1.548v7.738H18.024a1.52,1.52,0,0,0-1.548,1.548v4.643H11.833a1.52,1.52,0,0,0-1.548,1.548v8.77H5.643A1.52,1.52,0,0,0,4.1,28.341V62.9H2.548a1.548,1.548,0,1,0,0,3.1h61.9a1.548,1.548,0,1,0,0-3.1ZM59.294,29.889V62.9H56.2V29.889ZM53.1,62.9H43.817V19.571H53.1Zm-6.19-49.524v3.1h-3.1v-3.1Zm-27.341,0h3.1v3.1h-3.1Zm-6.19,6.19h9.286V62.9H13.381ZM7.19,29.889h3.1V62.9H7.19ZM25.762,62.9V4.1h14.96V62.9Z" transform="translate(-1 -1)"/></g></g></g></g></g></svg>