<svg xmlns="http://www.w3.org/2000/svg" width="249.452" height="137.047" viewBox="0 0 249.452 137.047"><g transform="translate(-0.8 11.907)"><path d="M21.7-11.35V-4c0,2.5-1.4,4-3.875,4H8.75Q.8,0,.8-7.075V-11.35H3.575v4.275A3.862,3.862,0,0,0,5-3.65a6.021,6.021,0,0,0,3.425.8h6.85A5.01,5.01,0,0,0,17.9-3.325a2.872,2.872,0,0,0,1.05-2.6V-11.35Zm-6.75-.025H12.225V-14.15H14.95Zm-4.75,0H7.475V-14.15H10.2ZM27.825,0H25.05V-16.15h2.775ZM36.7-11.35v9.125c0,4.5-1.975,6.375-6.275,6.375V1.75C32.75,1.75,33.9.6,33.9-1.8v-9.55ZM56.025,0H39.8V-2.85h9.05c0-3.275-1.275-5.175-3.8-5.725A11.576,11.576,0,0,0,42.525-8.8v-2.55c1.375,0,2.25.025,2.6.05a6.1,6.1,0,0,1,1.5.35c3.35,1.125,5.025,3.825,5.05,8.1h4.35Zm7.1-15.55h-2.75v-2.8h2.75Zm4.75,0h-2.75v-2.8h2.75ZM72.5,0H69.725A9.623,9.623,0,0,1,64.15-1.375,9.45,9.45,0,0,1,58.625,0H55.55V-2.85h2.925A5.906,5.906,0,0,0,60.8-3.125a5.949,5.949,0,0,1-1.85-2.3,6.253,6.253,0,0,1-.575-2.6,4.619,4.619,0,0,1,.3-1.725,5.784,5.784,0,0,1,5.5-3.85A5.555,5.555,0,0,1,70-8.125a6.127,6.127,0,0,1-.6,2.65,5.92,5.92,0,0,1-1.825,2.35A5.731,5.731,0,0,0,69.9-2.85h2.6ZM65.7-5.075a3.714,3.714,0,0,0,1.65-3.2,3.094,3.094,0,0,0-.775-2.175,3.106,3.106,0,0,0-2.4-.95,3.106,3.106,0,0,0-2.4.95,3.111,3.111,0,0,0-.8,2.175,3.775,3.775,0,0,0,1.65,3.2,10.159,10.159,0,0,0,1.55.925A10.686,10.686,0,0,0,65.7-5.075Zm13.775.55c0,3.025-1.4,4.525-4.2,4.525h-2.95V-2.85H74.7a1.772,1.772,0,0,0,1.775-.825,5.446,5.446,0,0,0,.2-1.8v-10.65h2.8ZM85.575,0H82.8V-16.15h2.775Zm20.45,0h-10.6V-2.85H97.7a5.341,5.341,0,0,1-.425-2.1,4.869,4.869,0,0,1,1.275-3.4,4.362,4.362,0,0,1,3.3-1.4,4.165,4.165,0,0,1,3.9,2.55l-2,1.375a1.719,1.719,0,0,0-1.775-1.35A1.673,1.673,0,0,0,100.5-6.4a2.8,2.8,0,0,0-.45,1.65,2.723,2.723,0,0,0,.625,1.9h5.35ZM116.75,0h-3.275a3.78,3.78,0,0,1-3.1-1.3,4.859,4.859,0,0,1-1-3.25V-16.125h2.775v10.45a2.836,2.836,0,0,0,.8,2.4,3.9,3.9,0,0,0,2.15.425h1.65Zm11.4,0H116.6V-2.85h2.6a1.7,1.7,0,0,0,1.675-.85,4.386,4.386,0,0,0,.3-1.9v-5.75h2.775v5.6a4.788,4.788,0,0,1-.6,2.9h4.8Zm-4.2-13.65H121.2v-2.775h2.75ZM135.2-4.525C135.2-1.5,133.8,0,131.025,0h-2.7V-2.85h2.125a1.772,1.772,0,0,0,1.775-.825,5.446,5.446,0,0,0,.2-1.8V-11.35H135.2Zm-.025,10H132.45v-2.8h2.725Z" transform="translate(0 54.014)" fill="#fff"/><g transform="translate(140.983 83.673) rotate(-60)" fill="none"><path d="M48.309,56.432,0,0H96.618Z" stroke="none"/><path d="M 48.30881500244141 56.4315299987793 L 96.61769866943359 1.309204071731074e-05 L 6.318563100649044e-05 0.0001130920427385718 L 48.30881500244141 56.4315299987793 M 48.30881500244141 64.12007904052734 L 44.510498046875 59.68311309814453 L -3.798253536224365 3.251696348190308 L -10.86210346221924 -4.999870300292969 L 6.318563100649044e-05 -4.999886989593506 L 96.61769866943359 -4.999987125396729 L 107.4798965454102 -5.000003337860107 L 100.416015625 3.251596450805664 L 52.10712814331055 59.68311309814453 L 48.30881500244141 64.12007904052734 Z" stroke="none" fill="#fdc501"/></g></g></svg>