<svg xmlns="http://www.w3.org/2000/svg" width="250.05" height="137.047" viewBox="0 0 250.05 137.047"><g transform="translate(-0.8 13.251)"><path d="M21.7-11.35V-4c0,2.5-1.4,4-3.875,4H8.75Q.8,0,.8-7.075V-11.35H3.575v4.275A3.862,3.862,0,0,0,5-3.65a6.021,6.021,0,0,0,3.425.8h6.85A5.01,5.01,0,0,0,17.9-3.325a2.872,2.872,0,0,0,1.05-2.6V-11.35Zm-6.75-.025H12.225V-14.15H14.95Zm-4.75,0H7.475V-14.15H10.2ZM27.825,0H25.05V-16.15h2.775ZM36.7-11.35v9.125c0,4.5-1.975,6.375-6.275,6.375V1.75C32.75,1.75,33.9.6,33.9-1.8v-9.55ZM47.4,0H44.125a3.78,3.78,0,0,1-3.1-1.3,4.859,4.859,0,0,1-1-3.25V-16.125H42.8v10.45a2.836,2.836,0,0,0,.8,2.4,3.9,3.9,0,0,0,2.15.425H47.4Zm-.3,0V-2.85h2.55c1.425,0,2.125-.975,2.125-2.95v-5.55H54.6V-5.9A6.107,6.107,0,0,1,54.15-3v.15h2.6c1.425,0,2.125-.925,2.125-2.775V-11.35H61.7V-5.9c0,1.625-.2,2.65-.575,3.05H63.85c1.425,0,2.125-.925,2.125-2.75v-5.75H68.8v5.4a7.153,7.153,0,0,1-.625,3.1H72.45V0ZM58.9-17.575v-2.8h2.75v2.8Zm2.35,3.925v-2.775h2.725v2.775Zm-4.725,0v-2.775H59.25v2.775ZM75-13.675H72.25V-16.45H75Zm4.75,0H77V-16.45h2.75ZM83.95,0H72.4V-2.85H75a1.7,1.7,0,0,0,1.675-.85,4.386,4.386,0,0,0,.3-1.9v-5.75H79.75v5.6a4.788,4.788,0,0,1-.6,2.9h4.8ZM84-2.85h2.05c1.425,0,2.125-.975,2.125-2.95v-5.55H91V-5.9A6.107,6.107,0,0,1,90.55-3v.15h2.6c1.425,0,2.125-.925,2.125-2.775V-11.35H98.1V-5.9c0,1.625-.2,2.65-.575,3.05h2.725c1.425,0,2.125-.925,2.125-2.75v-5.75H105.2v5.4c0,3.6-2,5.95-4.85,5.95H84Zm36.55-13.275v12.2c0,2.375-1.7,3.925-4.4,3.925h-7.475V-2.85H112.5l-3.15-11.5h2.95l3.125,11.5a2.282,2.282,0,0,0,1.7-.55,3.319,3.319,0,0,0,.7-2.4V-16.125ZM126.7,0h-2.775V-16.15H126.7Z" transform="translate(0 84.014)" fill="#fff"/><g transform="translate(189.889 111.889) rotate(-120)" fill="none"><path d="M48.309,56.431,0,0H96.617Z" stroke="none"/><path d="M 48.30865859985352 56.43143081665039 L 96.61734008789063 -1.258341512766492e-06 L 4.293212987249717e-05 6.540832691825926e-05 L 48.30865859985352 56.43143081665039 M 48.30865859985352 64.1199951171875 L 44.51034164428711 59.68301391601563 L -3.798273801803589 3.251648664474487 L -10.8621072769165 -4.999934673309326 L 4.293212987249717e-05 -4.999934673309326 L 96.61734008789063 -5.000001430511475 L 107.4795074462891 -5.000001430511475 L 100.415657043457 3.251582145690918 L 52.10697555541992 59.68301391601563 L 48.30865859985352 64.1199951171875 Z" stroke="none" fill="#fdc501"/></g></g></svg>