<svg xmlns="http://www.w3.org/2000/svg" width="173.795" height="119.03" viewBox="0 0 173.795 119.03"><g transform="translate(-0.8 12.089)"><path d="M12.65-6.05A5.751,5.751,0,0,1,6.75,0,5.86,5.86,0,0,1,.8-6.15a5.8,5.8,0,0,1,5.95-6.075A5.828,5.828,0,0,1,12.65-6.05Zm-2.875,0c0-2.1-1.225-3.675-3.125-3.675C4.8-9.725,3.7-8.2,3.7-6.175c0,2.075,1.325,3.65,3.125,3.65S9.775-4.025,9.775-6.05Zm11.575-5.3v9.125c0,4.5-1.975,6.375-6.275,6.375V1.75C17.4,1.75,18.55.6,18.55-1.8v-9.55ZM27.45,0H24.675V-16.15H27.45ZM42.425,0H30.55V-2.85H39.6c0-3.275-1.275-5.175-3.8-5.725A11.576,11.576,0,0,0,33.275-8.8v-2.55c1.375,0,2.25.025,2.6.05a6.1,6.1,0,0,1,1.5.35c3.35,1.125,5.025,3.825,5.05,8.1Zm15.2-16.125v12.2c0,2.375-1.7,3.925-4.4,3.925H45.75V-2.85h3.825l-3.15-11.5h2.95L52.5-2.85a2.282,2.282,0,0,0,1.7-.55,3.319,3.319,0,0,0,.7-2.4V-16.125ZM63.775,0H61V-16.15h2.775Z" transform="translate(0 74.556)" fill="#fff"/><g transform="translate(162.688 48.871) rotate(150)" fill="none"><path d="M48.309,56.431,0,0H96.617Z" stroke="none"/><path d="M 48.30870819091797 56.43142700195313 L 96.61740875244141 6.209310231497511e-05 L -7.067871138133341e-06 2.87597649730742e-05 L 48.30870819091797 56.43142700195313 M 48.30870819091797 64.11997985839844 L 44.51039123535156 59.68301391601563 L -3.798323631286621 3.251612186431885 L -10.86219024658203 -4.999971389770508 L -7.067871138133341e-06 -4.999971389770508 L 96.61740875244141 -4.999938011169434 L 107.4795761108398 -4.999938011169434 L 100.4157257080078 3.25164532661438 L 52.10702514648438 59.68301391601563 L 48.30870819091797 64.11997985839844 Z" stroke="none" fill="#fdc501"/></g></g></svg>