<svg xmlns="http://www.w3.org/2000/svg" xmlns:xlink="http://www.w3.org/1999/xlink" width="300" height="195" viewBox="0 0 300 195"><defs><style>.a{fill:url(#a);}.b,.f{fill:#414141;}.b{font-size:16px;font-family:Poppins-Medium, Poppins;font-weight:500;}.c{fill:none;}.d{fill:#fdc501;}.e{fill:#a4d4ff;}</style><linearGradient id="a" x1="0.5" x2="0.5" y2="1" gradientUnits="objectBoundingBox"><stop offset="0" stop-color="#fdc501"/><stop offset="1" stop-color="#fff"/></linearGradient></defs><g transform="translate(-520 -353.254)"><path class="a" d="M458-329.945l151.151-168.28L758-329.945Z" transform="translate(62 851.478)"/><g transform="translate(569.916 377.478)">
<g transform="translate(62.476 11.029)"><rect class="c" width="75" height="75" transform="translate(-0.392 -0.254)"/><circle class="d" cx="15.698" cy="15.698" r="15.698" transform="translate(37.5 14.826)"/><circle class="e" cx="21.802" cy="21.802" r="21.802" transform="translate(0.872 24.419)"/><g transform="translate(3.608 4.846)"><g transform="translate(1 5.9)"><path class="f" d="M66,9.493A3.61,3.61,0,0,0,62.344,5.9H4.656A3.61,3.61,0,0,0,1,9.493a3.566,3.566,0,0,0,2.945,3.494v43.02A3.932,3.932,0,0,0,7.906,59.9H58.891a3.932,3.932,0,0,0,3.961-3.893V12.987A3.565,3.565,0,0,0,66,9.493ZM61.023,56.007a2.02,2.02,0,0,1-2.031,2H8.008a2.02,2.02,0,0,1-2.031-2V13.087H61.023V56.007Zm1.32-44.917H4.555a1.6,1.6,0,1,1,0-3.194H62.344a1.6,1.6,0,1,1,0,3.194Z" transform="translate(-1 -5.9)"/><path class="f" d="M18.4,52.3a1,1,0,0,0,1-1A21.531,21.531,0,0,1,40.9,29.8H46l-3.9,3.9a.99.99,0,0,0,1.4,1.4l5.6-5.6a.967.967,0,0,0,0-1.4l-5.6-5.6a.99.99,0,0,0-1.4,1.4L46,27.8H40.8A23.43,23.43,0,0,0,17.4,51.2.975.975,0,0,0,18.4,52.3Z" transform="translate(-0.488 -6)"/><path class="f" d="M33.8,42.1a4.1,4.1,0,1,0,0,8.2,4.185,4.185,0,0,0,4.1-4.1A4.054,4.054,0,0,0,33.8,42.1Zm0,6.4A2.2,2.2,0,1,1,36,46.3,2.22,2.22,0,0,1,33.8,48.5Z" transform="translate(-0.486 -5.979)"/><path class="f" d="M46.7,41.3a.99.99,0,0,0-1.4,1.4L47,44.4,45.4,46a.99.99,0,0,0,1.4,1.4l1.7-1.7,1.7,1.7A.99.99,0,0,0,51.6,46l-1.7-1.7,1.7-1.7a.99.99,0,0,0-1.4-1.4L48.4,43Z" transform="translate(-0.229 -5.974)"/><path class="f" d="M29.1,25.2a.967.967,0,0,0,1.4,0l1.6-1.7,1.7,1.7a.99.99,0,1,0,1.4-1.4l-1.7-1.7,1.6-1.6a.99.99,0,1,0-1.4-1.4l-1.6,1.6-1.6-1.6a.99.99,0,1,0-1.4,1.4l1.6,1.6-1.6,1.7A.965.965,0,0,0,29.1,25.2Z" transform="translate(-0.515 -5.927)"/><path class="f" d="M14.6,32.9a.967.967,0,0,0,1.4,0l1.7-1.7,1.7,1.7a.99.99,0,0,0,1.4-1.4L19,29.9l1.7-1.7a.99.99,0,1,0-1.4-1.4l-1.7,1.7L16,26.8a.99.99,0,1,0-1.4,1.4l1.7,1.7-1.7,1.7A.853.853,0,0,0,14.6,32.9Z" transform="translate(-0.767 -5.943)"/></g></g></g></g></g></svg>