<svg xmlns="http://www.w3.org/2000/svg" xmlns:xlink="http://www.w3.org/1999/xlink" width="300" height="195" viewBox="0 0 300 195"><defs><style>.a{fill:url(#a);}.b,.f{fill:#414141;}.b{font-size:16px;font-family:Poppins-Medium, Poppins;font-weight:500;}.c{fill:none;}.d{fill:#fdc501;}.e{fill:#a4d4ff;}</style><linearGradient id="a" x1="0.5" x2="0.5" y2="1" gradientUnits="objectBoundingBox"><stop offset="0" stop-color="#377ab5"/><stop offset="1" stop-color="#fff"/></linearGradient></defs><g transform="translate(-520 -353.254)"><path class="a" d="M458-329.945l151.151-168.28L758-329.945Z" transform="translate(62 851.478)"/><g transform="translate(569.916 377.478)">
<g transform="translate(63.476 11.029)"><rect class="c" width="75" height="75" transform="translate(-0.392 -0.254)"/><circle class="d" cx="15.698" cy="15.698" r="15.698" transform="translate(37.5 14.826)"/><circle class="e" cx="21.802" cy="21.802" r="21.802" transform="translate(0.872 24.419)"/><g transform="translate(4.608 4.746)"><path class="f" d="M21.667,35.208H13.542a1.354,1.354,0,0,1-1.354-1.354V31.48c-.188-.076-.375-.154-.563-.237L9.944,32.924a1.393,1.393,0,0,1-1.915,0L2.284,27.179a1.354,1.354,0,0,1,0-1.915l1.681-1.682c-.084-.187-.161-.374-.236-.562H1.354A1.354,1.354,0,0,1,0,21.667V13.542a1.354,1.354,0,0,1,1.354-1.354H3.729c.074-.188.152-.375.236-.562L2.284,9.944a1.354,1.354,0,0,1,0-1.915L8.029,2.284a1.393,1.393,0,0,1,1.915,0l1.681,1.681c.188-.083.375-.161.563-.237V1.354A1.354,1.354,0,0,1,13.542,0h8.125a1.354,1.354,0,0,1,1.354,1.354V3.728c.188.076.375.154.563.237l1.681-1.681a1.393,1.393,0,0,1,1.915,0l5.744,5.744a1.354,1.354,0,0,1,0,1.915l-1.681,1.682c.084.187.161.374.236.562h2.375a1.354,1.354,0,0,1,1.354,1.354v8.125a1.354,1.354,0,0,1-1.354,1.354H31.479c-.074.188-.152.375-.236.562l1.681,1.682a1.354,1.354,0,0,1,0,1.915l-5.744,5.744a1.393,1.393,0,0,1-1.915,0l-1.681-1.681c-.188.083-.375.161-.563.237v2.374A1.354,1.354,0,0,1,21.667,35.208ZM14.9,32.5h5.417V30.524a1.354,1.354,0,0,1,.948-1.292,12.124,12.124,0,0,0,1.976-.826,1.354,1.354,0,0,1,1.584.242l1.4,1.4,3.83-3.83-1.4-1.4a1.354,1.354,0,0,1-.242-1.584,12.292,12.292,0,0,0,.826-1.974,1.354,1.354,0,0,1,1.292-.948H32.5V14.9H30.524a1.354,1.354,0,0,1-1.292-.948,12.293,12.293,0,0,0-.826-1.974,1.354,1.354,0,0,1,.242-1.584l1.4-1.4-3.83-3.83-1.4,1.4a1.354,1.354,0,0,1-1.584.242,12.124,12.124,0,0,0-1.976-.826,1.354,1.354,0,0,1-.948-1.292V2.708H14.9V4.684a1.354,1.354,0,0,1-.948,1.292,12.124,12.124,0,0,0-1.976.826,1.354,1.354,0,0,1-1.584-.242l-1.4-1.4-3.83,3.83,1.4,1.4A1.354,1.354,0,0,1,6.8,11.974a12.293,12.293,0,0,0-.826,1.974,1.354,1.354,0,0,1-1.292.948H2.708v5.417H4.684a1.354,1.354,0,0,1,1.292.948A12.293,12.293,0,0,0,6.8,23.235a1.354,1.354,0,0,1-.242,1.584l-1.4,1.4,3.83,3.83,1.4-1.4a1.354,1.354,0,0,1,1.584-.242,12.124,12.124,0,0,0,1.976.826,1.354,1.354,0,0,1,.948,1.292Z"/><path class="f" d="M15.125,23.25a8.125,8.125,0,1,1,8.125-8.125A8.125,8.125,0,0,1,15.125,23.25Zm0-13.542a5.417,5.417,0,1,0,5.417,5.417A5.417,5.417,0,0,0,15.125,9.708Z" transform="translate(2.479 2.479)"/><path class="f" d="M40.479,35.667H37.771A6.779,6.779,0,0,1,31,28.9V20.771A6.779,6.779,0,0,1,37.771,14h2.708a6.779,6.779,0,0,1,6.771,6.771V28.9A6.779,6.779,0,0,1,40.479,35.667ZM37.771,16.708a4.062,4.062,0,0,0-4.062,4.063V28.9a4.062,4.062,0,0,0,4.062,4.062h2.708A4.063,4.063,0,0,0,44.542,28.9V20.771a4.063,4.063,0,0,0-4.062-4.062Z" transform="translate(10.979 4.958)"/><path class="f" d="M45.542,23.417H40.125a1.354,1.354,0,0,1-.957-.4l-1.751-1.751L35.666,23.02a1.354,1.354,0,0,1-.957.4H32V20.708h2.148L36.459,18.4a1.354,1.354,0,0,1,1.915,0l2.312,2.312h4.856Z" transform="translate(11.333 6.375)"/><path class="f" d="M51.729,54.021H30.062A4.063,4.063,0,0,1,26,49.958V40.479A9.49,9.49,0,0,1,35.479,31a1.354,1.354,0,0,1,1.258.85L40.9,42.25l4.159-10.4A1.354,1.354,0,0,1,46.313,31a9.49,9.49,0,0,1,9.479,9.479v9.479A4.063,4.063,0,0,1,51.729,54.021ZM34.585,33.767a6.782,6.782,0,0,0-5.877,6.713v9.479a1.354,1.354,0,0,0,1.354,1.354H51.729a1.354,1.354,0,0,0,1.354-1.354V40.479a6.782,6.782,0,0,0-5.877-6.713L42.154,46.4a1.354,1.354,0,0,1-2.516,0Z" transform="translate(9.208 10.979)"/><path class="f" d="M39.479,45.479a1.354,1.354,0,0,1-.605-.135l-8.125-4.062A1.354,1.354,0,0,1,30,40.062V36h2.708v3.226l6.771,3.385,6.771-3.385V36h2.708v4.063a1.354,1.354,0,0,1-.749,1.219l-8.125,4.063A1.354,1.354,0,0,1,39.479,45.479Z" transform="translate(10.625 12.75)"/><rect class="f" width="2.708" height="6.771" transform="translate(48.75 56.875)"/><path class="f" d="M42.25,14.833H39.542V8.063a1.354,1.354,0,0,0-1.354-1.354H26V4H38.188A4.063,4.063,0,0,1,42.25,8.063Z" transform="translate(9.208 1.417)"/><path class="f" d="M31.437,42.6H7.062A4.063,4.063,0,0,1,3,38.542V25H5.708V38.542A1.354,1.354,0,0,0,7.062,39.9H31.437Z" transform="translate(1.062 8.854)"/><rect class="f" width="6.771" height="2.708" transform="translate(32.5 29.792)"/><path class="f" d="M33.833,6.771H31.125V4.062a1.354,1.354,0,0,0-1.354-1.354H23V0h6.771a4.063,4.063,0,0,1,4.062,4.063Z" transform="translate(8.146)"/><rect class="f" width="2.708" height="2.708" transform="translate(9.479 43.333)"/><rect class="f" width="2.708" height="2.708" transform="translate(14.896 43.333)"/><rect class="f" width="2.708" height="2.708" transform="translate(9.479 37.917)"/></g></g></g></g></svg>