<svg xmlns="http://www.w3.org/2000/svg" xmlns:xlink="http://www.w3.org/1999/xlink" width="300" height="195" viewBox="0 0 300 195"><defs><style>.a{fill:url(#a);}.b,.f{fill:#414141;}.b{font-size:16px;font-family:Poppins-Medium, Poppins;font-weight:500;}.c{fill:none;}.d{fill:#fdc501;}.e{fill:#a4d4ff;}</style><linearGradient id="a" x1="0.5" x2="0.5" y2="1" gradientUnits="objectBoundingBox"><stop offset="0" stop-color="#377ab5"/><stop offset="1" stop-color="#fff"/></linearGradient></defs><g transform="translate(-520 -353.254)"><path class="a" d="M458-329.945l151.151-168.28L758-329.945Z" transform="translate(62 851.478)"/><g transform="translate(569.916 377.478)">
<g transform="translate(62.476 11.029)"><rect class="c" width="75" height="75" transform="translate(0.608 -0.254)"/><circle class="d" cx="15.698" cy="15.698" r="15.698" transform="translate(37.5 14.826)"/><circle class="e" cx="21.802" cy="21.802" r="21.802" transform="translate(0.872 24.419)"/><g transform="translate(5.608 5.746)"><g transform="translate(0 1)"><g transform="translate(2.031 3)"><g transform="translate(0 2)"><path class="f" d="M3.016,46A1.007,1.007,0,0,1,2,45V7A1.016,1.016,0,0,1,4.031,7V45A1.007,1.007,0,0,1,3.016,46Z" transform="translate(-2 -6)"/></g><path class="f" d="M3.016,8A1.007,1.007,0,0,1,2,7,3.027,3.027,0,0,1,5.047,4a1,1,0,1,1,0,2A1.008,1.008,0,0,0,4.031,7,1.007,1.007,0,0,1,3.016,8Z" transform="translate(-2 -4)"/></g><g transform="translate(58.906 3)"><g transform="translate(2.031 2)"><path class="f" d="M61.016,46A1.007,1.007,0,0,1,60,45V7a1.016,1.016,0,0,1,2.031,0V45A1.007,1.007,0,0,1,61.016,46Z" transform="translate(-60 -6)"/></g><path class="f" d="M61.047,8a1.007,1.007,0,0,1-1.016-1,1.008,1.008,0,0,0-1.016-1,1,1,0,1,1,0-2,3.027,3.027,0,0,1,3.047,3A1.007,1.007,0,0,1,61.047,8Z" transform="translate(-58 -4)"/></g><g transform="translate(4.063 3)"><path class="f" d="M59.859,6H5.016a1,1,0,1,1,0-2H59.859a1,1,0,1,1,0,2Z" transform="translate(-4 -4)"/></g><g transform="translate(0 43)"><path class="f" d="M63.984,49H1.016A1.007,1.007,0,0,1,0,48V45a1.007,1.007,0,0,1,1.016-1H63.984A1.007,1.007,0,0,1,65,45v3A1.007,1.007,0,0,1,63.984,49ZM2.031,47H62.969V46H2.031Z" transform="translate(0 -44)"/></g><g transform="translate(15.234 45.999)"><g transform="translate(5.078)"><path class="f" d="M21.016,63a1.017,1.017,0,0,1-.341-.059.993.993,0,0,1-.614-1.277l5.078-14a1.015,1.015,0,0,1,1.3-.6.993.993,0,0,1,.614,1.277l-5.078,14A1.013,1.013,0,0,1,21.016,63Z" transform="translate(-20 -46.999)"/></g><path class="f" d="M16.016,63a1.017,1.017,0,0,1-.341-.059.993.993,0,0,1-.614-1.277l5.078-14a1.015,1.015,0,0,1,1.3-.6.993.993,0,0,1,.614,1.277l-5.078,14A1.013,1.013,0,0,1,16.016,63Z" transform="translate(-15 -46.999)"/><g transform="translate(0 14.001)"><path class="f" d="M21.094,63H16.016a1,1,0,1,1,0-2h5.078a1,1,0,1,1,0,2Z" transform="translate(-15 -61)"/></g><g transform="translate(22.344 0.001)"><path class="f" d="M43.094,63a1.013,1.013,0,0,1-.956-.664l-5.078-14a.993.993,0,0,1,.614-1.277,1.018,1.018,0,0,1,1.3.6l5.078,14a.993.993,0,0,1-.614,1.277A1.017,1.017,0,0,1,43.094,63Z" transform="translate(-37 -47)"/><g transform="translate(5.078)"><path class="f" d="M48.094,63a1.013,1.013,0,0,1-.956-.664l-5.078-14a.993.993,0,0,1,.614-1.277,1.018,1.018,0,0,1,1.3.6l5.078,14a.993.993,0,0,1-.614,1.277A1.017,1.017,0,0,1,48.094,63Z" transform="translate(-42 -47)"/></g><g transform="translate(5.078 14)"><path class="f" d="M48.094,63H43.016a1,1,0,1,1,0-2h5.078a1,1,0,1,1,0,2Z" transform="translate(-42 -61)"/></g></g></g><g transform="translate(23.214 52)"><path class="f" d="M40.413,55H23.873a1,1,0,1,1,0-2H40.412a1,1,0,1,1,0,2Z" transform="translate(-22.857 -53)"/></g><g transform="translate(22.126 55)"><path class="f" d="M41.518,58H22.8a1,1,0,1,1,0-2H41.518a1,1,0,1,1,0,2Z" transform="translate(-21.786 -56)"/></g><g transform="translate(27.422)"><path class="f" d="M36.141,6H28.016A1.007,1.007,0,0,1,27,5V2a1.007,1.007,0,0,1,1.016-1h8.125a1.007,1.007,0,0,1,1.016,1V5A1.007,1.007,0,0,1,36.141,6ZM29.031,4h6.094V3H29.031Z" transform="translate(-27 -1)"/></g><g transform="translate(9.141 30)"><path class="f" d="M13.063,39a4,4,0,1,1,4.063-4A4.036,4.036,0,0,1,13.063,39Zm0-6a2,2,0,1,0,2.031,2A2.018,2.018,0,0,0,13.063,33Z" transform="translate(-9 -31)"/></g><g transform="translate(44.688 16)"><path class="f" d="M48.063,25a4,4,0,1,1,4.063-4A4.036,4.036,0,0,1,48.063,25Zm0-6a2,2,0,1,0,2.031,2A2.018,2.018,0,0,0,48.063,19Z" transform="translate(-44 -17)"/></g><g transform="translate(47.734 10)"><path class="f" d="M48.016,22A1.007,1.007,0,0,1,47,21V12a1.016,1.016,0,0,1,2.031,0v9A1.007,1.007,0,0,1,48.016,22Z" transform="translate(-47 -11)"/></g><g transform="translate(47.734 10)"><path class="f" d="M54.109,13H48.016a1,1,0,1,1,0-2h6.094a1,1,0,1,1,0,2Z" transform="translate(-47 -11)"/></g><g transform="translate(47.734 14)"><path class="f" d="M54.109,17H48.016a1,1,0,1,1,0-2h6.094a1,1,0,1,1,0,2Z" transform="translate(-47 -15)"/></g><g transform="translate(52.812 10)"><path class="f" d="M54.032,17a1.018,1.018,0,0,1-.91-.553l-1.016-2a.986.986,0,0,1,0-.9l1.016-2a1.025,1.025,0,0,1,1.363-.447.993.993,0,0,1,.454,1.342L54.151,14l.788,1.553a.993.993,0,0,1-.454,1.342A1.031,1.031,0,0,1,54.032,17Z" transform="translate(-51.999 -11)"/></g><g transform="translate(17.266 19)"><path class="f" d="M18.016,31a1.018,1.018,0,0,1-.674-.253.988.988,0,0,1-.084-1.411C17.6,28.954,25.863,20,41.375,20a1,1,0,1,1,0,2c-14.61,0-22.523,8.578-22.6,8.664A1.017,1.017,0,0,1,18.016,31Z" transform="translate(-17 -20)"/></g><g transform="translate(38.593 19)"><path class="f" d="M39.016,24a1.021,1.021,0,0,1-.718-.293.988.988,0,0,1,0-1.414l2.031-2a1.026,1.026,0,0,1,1.436,0,.988.988,0,0,1,0,1.414l-2.031,2A1.021,1.021,0,0,1,39.016,24Z" transform="translate(-38 -20)"/></g><g transform="translate(38.593 17)"><path class="f" d="M41.047,22a1.021,1.021,0,0,1-.718-.293l-2.031-2a.988.988,0,0,1,0-1.414,1.026,1.026,0,0,1,1.436,0l2.031,2a.988.988,0,0,1,0,1.414A1.021,1.021,0,0,1,41.047,22Z" transform="translate(-38 -18)"/></g><g transform="translate(12.213 33.001)"><path class="f" d="M13.046,36a1,1,0,1,1-.011-2h.011a1,1,0,1,1,0,2Z" transform="translate(-12.025 -34.001)"/></g><g transform="translate(10.156 15)"><path class="f" d="M15.078,22a1.021,1.021,0,0,1-.718-.293l-4.062-4a.988.988,0,0,1,0-1.414,1.026,1.026,0,0,1,1.436,0l4.063,4a.988.988,0,0,1,0,1.414A1.021,1.021,0,0,1,15.078,22Z" transform="translate(-10 -16)"/></g><g transform="translate(10.156 15)"><path class="f" d="M11.016,22a1.021,1.021,0,0,1-.718-.293.988.988,0,0,1,0-1.414l4.063-4a1.026,1.026,0,0,1,1.436,0,.988.988,0,0,1,0,1.414l-4.062,4A1.021,1.021,0,0,1,11.016,22Z" transform="translate(-10 -16)"/></g><g transform="translate(25.39 8)"><path class="f" d="M30.078,15a1.021,1.021,0,0,1-.718-.293l-4.062-4a.988.988,0,0,1,0-1.414,1.026,1.026,0,0,1,1.436,0l4.063,4a.988.988,0,0,1,0,1.414A1.021,1.021,0,0,1,30.078,15Z" transform="translate(-25 -9)"/></g><g transform="translate(25.39 8)"><path class="f" d="M26.016,15a1.021,1.021,0,0,1-.718-.293.988.988,0,0,1,0-1.414l4.063-4a1.026,1.026,0,0,1,1.436,0,.988.988,0,0,1,0,1.414l-4.062,4A1.021,1.021,0,0,1,26.016,15Z" transform="translate(-25 -9)"/></g><g transform="translate(27.422 34)"><path class="f" d="M32.078,41a1.021,1.021,0,0,1-.718-.293l-4.062-4a.988.988,0,0,1,0-1.414,1.026,1.026,0,0,1,1.436,0l4.063,4a.988.988,0,0,1,0,1.414A1.021,1.021,0,0,1,32.078,41Z" transform="translate(-27 -35)"/></g><g transform="translate(27.422 34)"><path class="f" d="M28.016,41a1.021,1.021,0,0,1-.718-.293.988.988,0,0,1,0-1.414l4.063-4a1.026,1.026,0,0,1,1.436,0,.988.988,0,0,1,0,1.414l-4.062,4A1.021,1.021,0,0,1,28.016,41Z" transform="translate(-27 -35)"/></g><g transform="translate(42.656 29)"><path class="f" d="M47.078,36a1.021,1.021,0,0,1-.718-.293l-4.062-4a.988.988,0,0,1,0-1.414,1.026,1.026,0,0,1,1.436,0l4.063,4a.988.988,0,0,1,0,1.414A1.021,1.021,0,0,1,47.078,36Z" transform="translate(-42 -30)"/></g><g transform="translate(42.656 29)"><path class="f" d="M43.016,36a1.021,1.021,0,0,1-.718-.293.988.988,0,0,1,0-1.414l4.063-4a1.026,1.026,0,0,1,1.436,0,.988.988,0,0,1,0,1.414l-4.062,4A1.021,1.021,0,0,1,43.016,36Z" transform="translate(-42 -30)"/></g></g></g></g></g></g></svg>