<svg xmlns="http://www.w3.org/2000/svg" xmlns:xlink="http://www.w3.org/1999/xlink" width="300" height="195" viewBox="0 0 300 195"><defs><style>.a{fill:url(#a);}.b,.f,.g{fill:#414141;}.b{font-size:16px;font-family:Poppins-Medium, Poppins;font-weight:500;}.c{fill:none;}.d{fill:#fdc501;}.e{fill:#a4d4ff;}.f{fill-rule:evenodd;}</style><linearGradient id="a" x1="0.5" x2="0.5" y2="1" gradientUnits="objectBoundingBox"><stop offset="0" stop-color="#fdc501"/><stop offset="1" stop-color="#fff"/></linearGradient></defs><g transform="translate(-520 -353.254)"><path class="a" d="M458-329.945l151.151-168.28L758-329.945Z" transform="translate(62 851.478)"/><g transform="translate(569.916 377.478)">
<g transform="translate(63.476 11.029)"><rect class="c" width="75" height="75" transform="translate(-0.392 -0.254)"/><circle class="d" cx="15.698" cy="15.698" r="15.698" transform="translate(37.5 14.826)"/><circle class="e" cx="21.802" cy="21.802" r="21.802" transform="translate(0.872 24.419)"/><g transform="translate(6.608 5.536)"><g transform="translate(2 -0.79)"><path class="f" d="M229.654,126.81V92.479l14.6,8.278V126.81Zm-1.327,0V90.21l17.252,9.783v4.892l13.271,7.525v14.4h1.327v1.317H227V126.81Zm29.2,0V113.175L245.579,106.4V126.81ZM230.981,99.153h2.654v1.317h-2.654Zm0,3.951h2.654v1.317h-2.654Zm0,3.951h2.654v1.317h-2.654Zm3.981-3.951h3.981v1.317h-3.981Zm0,3.951h3.981v1.317h-3.981Zm5.308-3.951h2.654v1.317h-2.654Zm0,3.951h2.654v1.317h-2.654Zm-9.29,3.951h2.654v1.317h-2.654Zm3.981,0h3.981v1.317h-3.981Zm5.308,0h2.654v1.317h-2.654Zm-9.29,3.951h2.654v1.317h-2.654Zm3.981,0h3.981v1.317h-3.981Zm5.308,0h2.654v1.317h-2.654Zm-9.29,3.951h2.654v1.317h-2.654Zm3.981,0h3.981v1.317h-3.981Zm5.308,0h2.654v1.317h-2.654Zm-9.29,3.951h2.654v1.317h-2.654Zm3.981,0h3.981v1.317h-3.981Zm5.308,0h2.654v1.317h-2.654Zm6.635,0h3.981v1.317h-3.981Zm5.308,0H256.2v1.317h-3.981Zm-5.308-3.951h3.981v1.317h-3.981Zm5.308,0H256.2v1.317h-3.981Zm-5.308-3.951h3.981v1.317h-3.981Zm5.308,0H256.2v1.317h-3.981Zm-5.308-3.951h3.981v1.317h-3.981Z" transform="translate(-227 -90.21)"/></g><g transform="translate(25.833 26.293)"><g transform="translate(0)"><path class="f" d="M257.523,126.81V92.479l-14.6,8.278V126.81Zm1.327,0V90.21L241.6,99.993v4.892l-13.271,7.525v14.4H227v1.317h33.177V126.81Zm-29.2,0V113.175L241.6,106.4V126.81ZM256.2,99.153h-2.654v1.317H256.2Zm0,3.951h-2.654v1.317H256.2Zm0,3.951h-2.654v1.317H256.2Zm-3.981-3.951h-3.981v1.317h3.981Zm0,3.951h-3.981v1.317h3.981Zm-5.308-3.951h-2.654v1.317h2.654Zm0,3.951h-2.654v1.317h2.654Zm9.29,3.951h-2.654v1.317H256.2Zm-3.981,0h-3.981v1.317h3.981Zm-5.308,0h-2.654v1.317h2.654Zm9.29,3.951h-2.654v1.317H256.2Zm-3.981,0h-3.981v1.317h3.981Zm-5.308,0h-2.654v1.317h2.654Zm9.29,3.951h-2.654v1.317H256.2Zm-3.981,0h-3.981v1.317h3.981Zm-5.308,0h-2.654v1.317h2.654Zm9.29,3.951h-2.654v1.317H256.2Zm-3.981,0h-3.981v1.317h3.981Zm-5.308,0h-2.654v1.317h2.654Zm-6.635,0H236.29v1.317h3.981Zm-5.308,0h-3.981v1.317h3.981Zm5.308-3.951H236.29v1.317h3.981Zm-5.308,0h-3.981v1.317h3.981Zm5.308-3.951H236.29v1.317h3.981Zm-5.308,0h-3.981v1.317h3.981Zm5.308-3.951H236.29v1.317h3.981Z" transform="translate(-227 -90.21)"/></g></g><path class="g" d="M67.5,13.3H69.05V7.152H61.37V3.86L55.49,7.873l5.88,3.978V8.713H67.5ZM58.248,7.873,59.8,6.807V8.934Z" transform="translate(-19.982 5.535)"/><path class="g" d="M11.049,71.78H9.5v6.143h7.681v3.292L23.06,77.2l-5.88-3.978v3.137H11.049ZM20.3,77.2l-1.549,1.065V76.149Z" transform="translate(-4.187 -19.995)"/></g></g></g></g></svg>