<svg xmlns="http://www.w3.org/2000/svg" xmlns:xlink="http://www.w3.org/1999/xlink" width="300" height="195" viewBox="0 0 300 195"><defs><style>.a{fill:url(#a);}.b,.f{fill:#414141;}.b{font-size:16px;font-family:Poppins-Medium, Poppins;font-weight:500;}.c{fill:none;}.d{fill:#fdc501;}.e{fill:#a4d4ff;}</style><linearGradient id="a" x1="0.5" x2="0.5" y2="1" gradientUnits="objectBoundingBox"><stop offset="0" stop-color="#fdc501"/><stop offset="1" stop-color="#fff"/></linearGradient></defs><g transform="translate(-520 -353.254)"><path class="a" d="M458-329.945l151.151-168.28L758-329.945Z" transform="translate(62 851.478)"/><g transform="translate(569.916 377.478)">
<g transform="translate(62.083 10.774)"><rect class="c" width="75" height="75"/><circle class="d" cx="15.698" cy="15.698" r="15.698" transform="translate(37.5 13.826)"/><circle class="e" cx="21.802" cy="21.802" r="21.802" transform="translate(0.872 23.419)"/><g transform="translate(2.5 2.419)"><path class="f" d="M47.849,25.736a4.618,4.618,0,1,0-4.659-4.618A4.639,4.639,0,0,0,47.849,25.736Zm0-6.53a1.9,1.9,0,1,0,0,.007Z" transform="translate(-12.849 -3.837)"/><path class="f" d="M62.492,56.232h-.807V53.92a4.757,4.757,0,0,0-3.8-4.645V27.243h2.976a1.367,1.367,0,0,0,1.289-.926,1.349,1.349,0,0,0-.468-1.508L35.842,4.865a1.378,1.378,0,0,0-1.676,0L8.316,24.808a1.349,1.349,0,0,0-.469,1.505,1.367,1.367,0,0,0,1.283.929h2.976V49.282A4.757,4.757,0,0,0,8.316,53.92v2.312H7.508a4.964,4.964,0,1,0,0,9.928H62.492a4.964,4.964,0,1,0,0-9.928Zm-7.335-7.059h-4.42V27.243h4.441ZM29.191,27.243h4.441v21.93H29.191ZM26.454,49.18H22V27.243h4.441Zm9.914-21.937h4.441v21.93H36.368Zm7.177,0H48v21.93H43.546ZM35,7.673,56.895,24.53H13.105ZM19.263,27.243v21.93h-4.42V27.243ZM11.053,53.92a2.044,2.044,0,0,1,2.053-2.034H56.895a2.044,2.044,0,0,1,2.053,2.034v2.312H11.053Zm51.453,9.494h-55a2.251,2.251,0,1,1,0-4.5H62.492a2.251,2.251,0,1,1,0,4.5Z"/></g></g></g></g></svg>